<?xml version="1.0" encoding="UTF-8"?>
<svg id="Layer_1" data-name="Layer 1" xmlns="http://www.w3.org/2000/svg" viewBox="0 0 113.92 55">
  <defs>
    <style>
      .cls-1 {
        fill: #05331c;
      }
    </style>
  </defs>
  <g>
    <path class="cls-1" d="M12.36,25.21v.65c0,.09-.06.16-.15.16-.85,0-1.46-.25-1.84-.72-.94.5-1.68.72-2.44.72-1.68,0-2.89-1.1-2.89-2.75,0-1.53,1.13-3.62,4.81-4.09v-1.07h.88v5.45c0,1.02.4,1.52,1.47,1.52.09,0,.15.06.15.15ZM10.01,24.61c-.1-.31-.15-.68-.15-1.07v-3.52c-2.3.27-3.93,1.52-3.93,3.18,0,1.12.81,1.87,2.03,1.87.69,0,1.37-.15,2.05-.46ZM8.49,16.85l-.93-.93.93-.93.94.93-.94.93ZM10.67,16.85l-.94-.93.94-.93.93.93-.93.93Z"/>
    <path class="cls-1" d="M13.91,28.28l-.94.93-.93-.93.93-.93.94.93ZM16.18,23.21c0,1.78-.88,2.81-2.86,2.81h-1.1c-.09,0-.15-.07-.15-.16v-.65c0-.09.06-.15.15-.15h1.1c1.37,0,2.05-.6,2.05-1.81,0-.81-.13-1.77-.52-4.37h.88c.31,2.12.44,3.37.44,4.33ZM16.07,28.28l-.93.93-.94-.93.94-.93.93.93Z"/>
    <path class="cls-1" d="M20.34,25.6c0,2.4-1.5,3.59-3.62,3.59v-.88c1.53,0,2.8-.9,2.8-2.72,0-1.38-.22-3.58-.57-6.04h.88c.25,1.78.52,4.25.52,6.05Z"/>
    <path class="cls-1" d="M23.44,23.26c0,1.21.6,1.81,1.97,1.81.09,0,.15.06.15.15v.65c0,.09-.06.16-.15.16-1.97,0-2.86-1.03-2.86-2.81v-7.86h.88v7.91Z"/>
    <path class="cls-1" d="M33.71,25.21v.65c0,.09-.06.16-.15.16-1.4,0-2.81-.09-4.17-.47-1.4.41-2.68.47-3.99.47-.09,0-.15-.07-.15-.16v-.65c0-.09.06-.15.15-.15.74,0,1.65,0,2.55-.1-1.05-.63-1.6-1.6-1.6-2.75,0-1.9,1.41-3.18,3.11-3.18,1.81,0,3.14,1.38,3.14,3.15,0,1.16-.62,2.15-1.78,2.8.97.09,2.03.09,2.75.09.09,0,.15.06.15.15ZM29.31,24.82c1.56-.47,2.4-1.43,2.4-2.61,0-1.31-.99-2.22-2.3-2.22-1.21,0-2.18.85-2.18,2.28,0,1.12.79,2.13,2.08,2.55ZM28.46,17.74l-.93-.93.93-.93.94.93-.94.93ZM30.63,17.74l-.94-.93.94-.93.93.93-.93.93Z"/>
    <path class="cls-1" d="M42.4,25.21v.65c0,.09-.06.16-.15.16-1.56,0-2.74-.28-3.78-.69-1.55.53-2.8.69-4.9.69-.09-.01-.15-.07-.15-.16v-.65c0-.09.06-.15.15-.15,1.33,0,2.61-.06,3.61-.22-.97-1.78-1.84-2.9-2.72-3.86-.15.07-.31.15-.46.24v-.81c1.16-.78,2.83-1.38,4.15-1.38,1.75,0,3.05,1.12,3.05,2.61,0,.99-.66,2.31-1.81,3.15.9.19,1.78.28,2.87.28.09,0,.15.06.15.15ZM35.2,20.64c.91.97,1.93,2.43,2.83,4.15,1.22-.52,2.28-2.03,2.28-2.93,0-1.13-.96-1.88-2.41-1.88-.74,0-1.68.24-2.69.66Z"/>
    <path class="cls-1" d="M45.11,15.35v7.86c0,1.78-.88,2.81-2.86,2.81-.09,0-.15-.07-.15-.16v-.65c0-.09.06-.15.15-.15,1.37,0,1.97-.6,1.97-1.81v-7.91h.88Z"/>
    <path class="cls-1" d="M48.72,26.02h-.88v-10.67h.88v10.67Z"/>
    <path class="cls-1" d="M60.45,25.07l-.24.96h-3.65c-.81,0-1.46.07-2.67.43v-.88c1.06-.35,1.53-.47,2.33-.5-.91-.57-1.31-1.52-1.31-2.24,0-1.46,1.25-2.69,2.83-2.69.59,0,1.16.15,2.13.54v.81c-.85-.29-1.37-.4-1.96-.4-1.28,0-2.12.79-2.12,1.78,0,.75.44,2.19,3.39,2.19h1.27Z"/>
    <path class="cls-1" d="M63.17,26.02h-.88v-10.67h.88v10.67Z"/>
    <path class="cls-1" d="M70.56,23.64c0,1.43-1.06,2.39-2.64,2.39-.96,0-1.84-.13-3.21-.5v-.88c1.49.31,2.3.43,3.02.43,1.32,0,2.02-.5,2.02-1.49,0-.71-.43-2.21-1.66-4.7h.88c.94,1.81,1.59,3.72,1.59,4.76Z"/>
    <path class="cls-1" d="M74.89,15.65l-.22.74h-2.31c-.34,0-.6.03-1.1.18v-.71c.49-.18.68-.21,1.07-.21-.25-.24-.35-.54-.35-.84,0-.77.57-1.28,1.34-1.28.29,0,.62.1,1.02.28v.74c-.38-.15-.66-.21-.9-.21-.44,0-.71.27-.71.63s.32.68.71.68h1.46ZM72.7,17.19h.88v8.83h-.88v-8.83Z"/>
  </g>
  <g>
    <path class="cls-1" d="M8.2,31.82l2.56,6.73h-.68l-.64-1.69h-3.21l-.63,1.69h-.67l2.55-6.73h.71ZM9.22,36.29l-1.39-3.7-1.37,3.7h2.77Z"/>
    <path class="cls-1" d="M14.79,34.42v-2.6h.58v6.73h-.58v-.82c-.35.59-.96.94-1.69.94-1.15,0-2.09-.94-2.09-2.6s.94-2.6,2.09-2.6c.73,0,1.34.34,1.69.95ZM11.64,36.07c0,1.33.66,2.08,1.59,2.08.75,0,1.61-.6,1.61-2.08s-.85-2.08-1.61-2.08c-.93,0-1.59.75-1.59,2.08Z"/>
    <path class="cls-1" d="M18.03,38.67c-.93,0-1.65-.54-1.65-1.37,0-1.13,1.11-1.55,3.52-1.79v-.18c0-1.13-.67-1.38-1.39-1.38-.85,0-1.36.47-1.4,1.12h-.6c.13-.98.93-1.63,2.04-1.63s1.93.48,1.93,1.97c0,.69,0,1.14,0,1.54,0,.57.03,1.06.06,1.6h-.59l-.03-.76c-.33.53-.95.88-1.88.88ZM19.92,36.27v-.24c-2.03.22-2.91.49-2.91,1.27,0,.53.48.86,1.14.86.93,0,1.77-.47,1.77-1.89Z"/>
    <path class="cls-1" d="M22.94,38.67c-.93,0-1.65-.54-1.65-1.37,0-1.13,1.11-1.55,3.52-1.79v-.18c0-1.13-.67-1.38-1.39-1.38-.85,0-1.36.47-1.4,1.12h-.6c.13-.98.93-1.63,2.04-1.63s1.93.48,1.93,1.97c0,.69,0,1.14,0,1.54,0,.57.03,1.06.06,1.6h-.58l-.03-.76c-.33.53-.95.88-1.88.88ZM24.84,36.27v-.24c-2.03.22-2.91.49-2.91,1.27,0,.53.48.86,1.14.86.93,0,1.76-.47,1.76-1.89Z"/>
    <path class="cls-1" d="M30.88,35.58h-1.36v2.97h-.62v-6.73h1.98c1.61,0,2.75.28,2.75,1.85,0,1.13-.59,1.63-1.53,1.82l1.63,3.07h-.7l-1.59-2.99c-.18.02-.37.02-.57.02ZM29.52,35.01h1.44c1.11,0,2.02-.14,2.02-1.33s-.91-1.3-2.02-1.3h-1.44v2.63Z"/>
    <path class="cls-1" d="M36.66,33.47c1.41,0,2.3,1.19,2.23,2.75h-3.98c.02,1.21.78,1.92,1.8,1.92.78,0,1.33-.4,1.52-1.09h.6c-.24,1.03-1.07,1.62-2.16,1.62-1.47,0-2.36-1.05-2.36-2.6s1-2.6,2.34-2.6ZM38.26,35.69c0-.85-.6-1.7-1.61-1.7-.93,0-1.6.59-1.72,1.7h3.33Z"/>
    <path class="cls-1" d="M41.16,38.67c-.93,0-1.65-.54-1.65-1.37,0-1.13,1.11-1.55,3.52-1.79v-.18c0-1.13-.67-1.38-1.39-1.38-.85,0-1.36.47-1.4,1.12h-.6c.13-.98.93-1.63,2.04-1.63s1.93.48,1.93,1.97c0,.69,0,1.14,0,1.54,0,.57.03,1.06.06,1.6h-.59l-.03-.76c-.33.53-.95.88-1.88.88ZM43.06,36.27v-.24c-2.03.22-2.91.49-2.91,1.27,0,.53.48.86,1.14.86.93,0,1.77-.47,1.77-1.89Z"/>
    <path class="cls-1" d="M44.81,38.55v-6.73h.58v6.73h-.58Z"/>
    <path class="cls-1" d="M53.41,31.82v.58h-3.7v2.38h3.47v.59h-3.47v2.62h3.7v.58h-4.32v-6.73h4.32Z"/>
    <path class="cls-1" d="M56.04,33.97c-.55,0-1.27.21-1.27.82,0,.49.39.75.94.85l.71.13c.82.15,1.73.43,1.73,1.37s-.9,1.52-1.99,1.52-1.92-.51-2.07-1.65h.6c.11.79.74,1.14,1.51,1.14.6,0,1.36-.25,1.36-.92,0-.59-.56-.79-1.24-.92l-.78-.15c-.72-.14-1.36-.56-1.36-1.34s.79-1.37,1.91-1.37,1.8.66,1.92,1.46h-.6c-.12-.59-.67-.95-1.37-.95Z"/>
    <path class="cls-1" d="M60.09,32.43v1.12h.98v.5h-.98v3.2c0,.65.02.78.69.78h.3v.52h-.47c-.89,0-1.1-.2-1.1-1.19v-3.31h-.83v-.5h.83v-1.12h.59Z"/>
    <path class="cls-1" d="M63.33,38.67c-.93,0-1.65-.54-1.65-1.37,0-1.13,1.11-1.55,3.52-1.79v-.18c0-1.13-.67-1.38-1.39-1.38-.85,0-1.36.47-1.4,1.12h-.6c.13-.98.93-1.63,2.04-1.63s1.93.48,1.93,1.97c0,.69,0,1.14,0,1.54,0,.57.03,1.06.06,1.6h-.58l-.03-.76c-.33.53-.95.88-1.88.88ZM65.22,36.27v-.24c-2.03.22-2.91.49-2.91,1.27,0,.53.48.86,1.14.86.93,0,1.76-.47,1.76-1.89Z"/>
    <path class="cls-1" d="M67.8,32.43v1.12h.98v.5h-.98v3.2c0,.65.02.78.69.78h.3v.52h-.47c-.89,0-1.1-.2-1.1-1.19v-3.31h-.83v-.5h.83v-1.12h.58Z"/>
    <path class="cls-1" d="M71.73,33.47c1.41,0,2.3,1.19,2.23,2.75h-3.98c.02,1.21.78,1.92,1.8,1.92.78,0,1.33-.4,1.52-1.09h.6c-.24,1.03-1.07,1.62-2.16,1.62-1.47,0-2.36-1.05-2.36-2.6s1-2.6,2.34-2.6ZM73.32,35.69c0-.85-.6-1.7-1.61-1.7-.93,0-1.6.59-1.72,1.7h3.33Z"/>
  </g>
  <path class="cls-1" d="M82.83,13.52s-.77.17-.8,1.4v23.68s.25.7.95,1.02l22.06,10.41V15.62s-.47-3.49-4.44-3.24c0,0-5.12-.5-8.56,7.16l-.22.17-4.97-2.02.3,16.3s.1.55.82,1l8.51,3.57-8.42-4.28.41-14.19,3.15,1.33-.03,11.82s.14.15.68.2l7.73.05s.37,0,.37-.5v-8.66s-.07-.57-.77-.95l-6.06-2.7s.36-3.86,4.32-6.06c4.17-2.32,5.39.8,5.39.8v31.69s.15.32-.52.2l-18.92-9.03V15.47s.05-.52.42-.75,24.48-11.98,24.48-11.98l-.02,1.47.45-.05V1.93l-26.3,11.59ZM98.5,24.53v7.41h-5.32v-9.68l5.32,2.27Z"/>
</svg>