<?xml version="1.0" encoding="UTF-8"?>
<svg id="Layer_2" data-name="Layer 2" xmlns="http://www.w3.org/2000/svg" viewBox="0 0 82.78 21.65">
  <defs>
    <style>
      .cls-1 {
        fill: #07341d;
        stroke-width: 0px;
      }
    </style>
  </defs>
  <g id="Layer_1-2" data-name="Layer 1">
    <g>
      <path class="cls-1" d="M24.44,18.16c0,.16-1.86.31-2,.32-.74.07-1.49.08-2.22-.06-.65-.13-1.41-.36-1.86-.88-.35-.4-.48-.93-.48-1.45,0-1.06.64-1.82,1.61-2.18.96-.35,1.99-.35,3-.27.13.01,1.95.14,1.95.3v4.21ZM28.42,8.36c-.42-1.62-1.56-3.02-3.08-3.79-.33-.16-.69-.3-1.05-.41,0,0,0,0,0,0-2.9-.91-6.61-.45-8.99.41v3.63c.58-.31,1.21-.54,1.86-.71,1.34-.34,2.77-.41,4.1-.3.88.08,2.01.36,2.58,1.1.6.77.64,1.94.61,2.87-1.08-.21-2.16-.39-3.27-.39-1.74,0-3.78.21-5.25,1.27-1.32.95-2.12,2.5-2.12,4.13h0c.02,1.74.88,3.36,2.33,4.3,1.44.94,3.34,1.18,5.03,1.19,1.84.01,3.67-.29,5.45-.72.58-.14,1.49-.43,1.97-.59v-10.65c0-.45-.06-.9-.17-1.33"/>
      <path class="cls-1" d="M6.84,9.97v5.34c-.03.76.19,3.73,4.64,2.56v3.55s-.91.18-1.64.22c-2.39.12-5.25-.42-6.56-2.65-.54-.91-.8-2.07-.8-3.5V7.27H0v-3.48h2.48V0h4.35v3.79h4.64v3.48h-5.63s1,.41,1,2.7"/>
      <path class="cls-1" d="M46.66,7.27v8.21c0,1.43.26,2.6.8,3.5,1.32,2.24,4.17,2.77,6.56,2.65.73-.04,1.64-.22,1.64-.22v-3.55c-4.45,1.17-4.67-1.8-4.65-2.56v-5.34c.01-2.28-.98-2.7-.98-2.7h5.63v-3.48h-4.64V0h-4.35v7.27Z"/>
      <path class="cls-1" d="M35.3,12.66c0,2.92,2.37,5.29,5.29,5.29,0,0,1.94.07,3.72-.51v3.63c-1.49.51-2.83.6-4.45.6-4.97,0-9-4.03-9-9v-.02c0-4.97,4.03-9,9-9,1.62,0,2.96.09,4.45.6v3.63c-1.78-.59-3.72-.51-3.72-.51-2.92,0-5.29,2.37-5.29,5.29v.02Z"/>
      <path class="cls-1" d="M60.78,12.15v-3.55h1.16c.26,0,.48.04.68.12.2.08.37.2.51.35.14.15.25.34.32.56.07.22.11.47.11.74s-.04.52-.11.74c-.07.22-.18.41-.31.56-.14.15-.31.27-.51.35-.2.08-.43.12-.68.12h-1.16ZM62.96,12.72c.29-.12.54-.29.75-.52.2-.22.36-.49.47-.8.11-.31.17-.65.17-1.03s-.06-.72-.17-1.03c-.11-.31-.27-.58-.48-.8-.21-.23-.46-.4-.75-.52-.29-.12-.62-.18-.98-.18h-1.98v5.06h1.98c.36,0,.69-.06.98-.18"/>
      <rect class="cls-1" x="65.12" y="9.11" width=".74" height="3.79"/>
      <path class="cls-1" d="M65.48,8.27c.15,0,.28-.04.36-.13.09-.09.13-.2.13-.34,0-.15-.04-.26-.13-.35-.09-.08-.21-.12-.37-.12s-.28.04-.36.13c-.09.09-.13.2-.13.34,0,.15.04.26.13.35.09.08.21.12.37.12"/>
      <path class="cls-1" d="M69.15,12.12c-.18.11-.39.17-.63.17s-.44-.06-.62-.17c-.18-.11-.32-.26-.43-.46-.1-.2-.16-.42-.16-.66s.05-.47.16-.66c.1-.2.25-.35.43-.46.18-.11.39-.17.62-.17s.44.06.62.17c.18.11.32.26.43.46.1.2.16.42.16.67s-.05.47-.15.66c-.1.19-.24.34-.43.46M69.3,14.44c.24-.08.45-.21.61-.37.17-.16.3-.36.39-.59.09-.23.13-.5.13-.81v-3.56h-.74v.53c-.05-.07-.1-.13-.17-.19-.09-.08-.19-.15-.31-.21-.12-.07-.24-.12-.38-.15-.14-.04-.27-.05-.42-.05-.35,0-.67.09-.95.26-.28.17-.5.4-.66.7-.16.3-.24.63-.24,1.02s.08.72.25,1.01c.16.3.39.53.67.7.28.17.6.26.96.26.21,0,.41-.04.61-.13.2-.09.36-.2.49-.34.07-.07.12-.14.16-.21v.46c0,.25-.05.46-.14.63-.09.17-.23.3-.4.38-.18.09-.4.13-.66.13-.21,0-.43-.03-.64-.1-.21-.07-.39-.16-.54-.27l-.28.58c.16.14.38.24.65.33.27.08.54.13.81.13.3,0,.58-.04.82-.13"/>
      <rect class="cls-1" x="71.39" y="9.11" width=".74" height="3.79"/>
      <path class="cls-1" d="M71.75,8.27c.15,0,.28-.04.36-.13.09-.09.13-.2.13-.34,0-.15-.04-.26-.13-.35-.09-.08-.21-.12-.37-.12s-.28.04-.37.13c-.09.09-.13.2-.13.34,0,.15.04.26.13.35.09.08.21.12.37.12"/>
      <polygon class="cls-1" points="75.15 9.83 75.15 9.11 74.27 9.11 74.27 8.14 73.52 8.14 73.52 9.11 72.74 9.11 72.74 9.83 73.52 9.83 73.52 12.9 74.27 12.9 74.27 9.83 75.15 9.83"/>
      <path class="cls-1" d="M77.63,12c-.12.11-.26.19-.42.25-.16.06-.32.09-.5.09-.12,0-.23-.02-.32-.07-.09-.04-.16-.1-.22-.18-.05-.08-.08-.17-.08-.28s.02-.19.06-.26c.04-.07.1-.14.18-.19.08-.06.18-.1.29-.12.11-.03.24-.04.39-.04h.81v.6c-.05.07-.12.15-.19.21M77.11,10.6c-.28,0-.53.03-.74.08-.21.05-.39.13-.53.23-.14.1-.25.23-.32.38-.07.15-.11.33-.11.53,0,.23.06.43.17.6.11.17.27.3.46.4.19.1.41.14.66.14.19,0,.37-.04.54-.11.17-.07.33-.17.48-.3.04-.03.07-.07.11-.11v.44h.67v-2.63c0-.26-.06-.49-.17-.68-.12-.19-.28-.33-.49-.42-.21-.1-.46-.14-.75-.14s-.59.06-.85.18c-.26.12-.51.3-.73.55l.48.48c.14-.18.29-.31.47-.4.17-.09.36-.13.57-.13.23,0,.42.07.57.2.15.13.23.3.23.52v.17h-.71Z"/>
      <rect class="cls-1" x="79.23" y="7.56" width=".74" height="5.35"/>
      <path class="cls-1" d="M61.3,18.54c.18-.11.39-.17.62-.17.13,0,.26.03.39.08.13.05.26.13.38.22.12.09.22.19.3.3l.41-.51c-.14-.24-.36-.42-.63-.56-.28-.14-.58-.21-.92-.21s-.67.09-.94.26c-.28.17-.5.41-.66.71-.16.3-.24.63-.24,1s.08.71.24,1c.16.3.38.53.66.71.28.17.59.26.94.26.31,0,.61-.07.89-.21.29-.14.51-.32.66-.53l-.41-.51c-.1.13-.21.23-.32.32-.12.09-.23.15-.36.19-.12.04-.25.07-.38.07-.22,0-.42-.06-.61-.17-.18-.12-.33-.27-.44-.47-.11-.2-.17-.42-.17-.66s.05-.47.16-.67c.11-.2.25-.35.43-.47"/>
      <path class="cls-1" d="M66.61,20.33c-.1.19-.24.35-.42.46-.18.11-.38.17-.61.17s-.43-.06-.61-.17c-.18-.11-.32-.27-.42-.46-.1-.2-.15-.42-.14-.66,0-.25.04-.47.14-.66.1-.2.24-.35.42-.46.18-.11.38-.17.61-.17s.43.06.61.17c.18.11.32.26.42.46.1.2.15.42.14.67,0,.25-.04.47-.14.66M66.57,17.96c-.29-.17-.62-.26-.99-.26s-.7.09-.99.26c-.29.17-.52.4-.69.7-.17.3-.25.63-.25,1.02s.08.72.25,1.01c.17.3.4.53.69.7.29.17.62.26.99.26s.69-.09.99-.26c.29-.17.52-.41.69-.7.17-.3.25-.63.25-1.01s-.08-.72-.25-1.02c-.17-.3-.4-.53-.69-.7"/>
      <path class="cls-1" d="M73.2,17.89c-.19-.12-.42-.17-.7-.17-.13,0-.26.02-.4.07-.14.04-.26.1-.38.18-.12.08-.23.16-.32.26-.09.09-.16.19-.21.3-.05-.14-.1-.27-.18-.37-.11-.14-.24-.25-.4-.33-.16-.07-.35-.11-.57-.11-.15,0-.3.03-.44.08-.14.05-.27.12-.4.21-.12.09-.23.19-.31.31-.02.02-.03.05-.05.08v-.61h-.75v3.79h.75v-2.28c0-.13.02-.24.07-.35.05-.11.12-.2.2-.28.09-.08.19-.14.3-.19.12-.05.24-.07.38-.07.24,0,.43.08.55.24.13.16.19.39.19.69v2.25h.75v-2.27c0-.13.02-.25.07-.36.05-.11.12-.2.2-.29.09-.08.19-.15.31-.19.12-.05.24-.07.38-.07.26,0,.45.08.57.23.12.15.18.39.18.71v2.23h.75v-2.28c0-.35-.05-.65-.14-.88-.09-.24-.23-.41-.42-.53"/>
      <path class="cls-1" d="M79.64,17.89c-.19-.12-.42-.17-.7-.17-.13,0-.26.02-.4.07-.14.04-.26.1-.38.18-.12.08-.23.16-.32.26-.09.09-.16.19-.21.3-.05-.14-.1-.27-.18-.37-.11-.14-.24-.25-.4-.33-.16-.07-.35-.11-.57-.11-.15,0-.29.03-.44.08-.14.05-.27.12-.4.21-.12.09-.23.19-.31.31-.02.02-.03.05-.05.08v-.61h-.75v3.79h.75v-2.28c0-.13.02-.24.07-.35.05-.11.12-.2.2-.28.09-.08.19-.14.3-.19.12-.05.24-.07.38-.07.24,0,.43.08.55.24.13.16.19.39.19.69v2.25h.75v-2.27c0-.13.02-.25.07-.36.05-.11.12-.2.2-.29.09-.08.19-.15.31-.19.12-.05.24-.07.38-.07.26,0,.45.08.57.23.12.15.18.39.18.71v2.23h.75v-2.28c0-.35-.05-.65-.14-.88-.09-.24-.23-.41-.42-.53"/>
      <path class="cls-1" d="M82.59,20.28c-.13-.14-.31-.21-.54-.21-.22,0-.39.07-.53.22-.13.15-.2.34-.2.57,0,.25.06.45.19.59.13.14.31.21.54.21.22,0,.39-.07.53-.22.13-.15.2-.34.2-.57,0-.25-.06-.45-.19-.59"/>
    </g>
  </g>
</svg>