<?xml version="1.0" encoding="UTF-8"?>
<svg id="Layer_2" data-name="Layer 2" xmlns="http://www.w3.org/2000/svg" viewBox="0 0 79.5 21.08">
  <defs>
    <style>
      .cls-1 {
        fill: #07341d;
        stroke-width: 0px;
      }
    </style>
  </defs>
  <g id="Layer_1-2" data-name="Layer 1">
    <g>
      <path class="cls-1" d="M55.34.96c0,.52-.42.93-.94.93s-.95-.41-.95-.93.42-.92.96-.92.94.4.94.92ZM53.69.96c0,.41.31.74.72.74.4,0,.7-.33.7-.73s-.3-.74-.71-.74-.71.33-.71.74ZM54.25,1.44h-.21v-.92c.08-.01.2-.03.35-.03.17,0,.25.03.31.07.06.04.1.11.1.2,0,.11-.08.19-.19.22h0c.09.04.13.11.16.24.03.14.05.19.07.22h-.22s-.04-.11-.07-.22c-.02-.1-.07-.14-.19-.14h-.1v.37ZM54.26.92h.1c.12,0,.21-.04.21-.13,0-.08-.06-.14-.2-.14-.06,0-.1,0-.12.01v.26Z"/>
      <path class="cls-1" d="M45.98,21.08c-2.47,0-4.62-.78-6.38-2.31-1.94-1.69-2.97-3.95-2.97-6.53s1.04-4.78,3.01-6.5c1.79-1.56,3.92-2.35,6.35-2.35s4.56.79,6.35,2.35c1.97,1.72,3.01,3.96,3.01,6.5s-1.03,4.84-2.98,6.53c-1.76,1.53-3.91,2.31-6.38,2.31Z"/>
      <rect class="cls-1" x="19.08" y="7.59" width="6.98" height="13.46"/>
      <path class="cls-1" d="M22.57,6.71c-1.01,0-1.89-.3-2.61-.88-.79-.64-1.21-1.5-1.21-2.48s.42-1.81,1.23-2.46c.73-.59,1.6-.89,2.59-.89s1.86.3,2.59.89c.8.65,1.23,1.5,1.23,2.46s-.42,1.84-1.21,2.48c-.72.58-1.6.88-2.6.88Z"/>
      <rect class="cls-1" x="27.88" y="7.59" width="6.98" height="13.46"/>
      <path class="cls-1" d="M31.37,6.71c-1.01,0-1.89-.3-2.61-.88-.79-.64-1.21-1.5-1.21-2.48s.42-1.81,1.23-2.46c.73-.59,1.6-.89,2.59-.89s1.86.3,2.59.89c.8.65,1.23,1.5,1.23,2.46s-.42,1.84-1.21,2.48c-.72.58-1.6.88-2.6.88Z"/>
      <path class="cls-1" d="M10.68,21.04H.21c-.12,0-.21-.09-.21-.21V.34c0-.12.09-.21.21-.21h9.88c4.71,0,6.28,2.35,6.28,5.66,0,1.37-.81,2.83-2.25,3.86-.13.09-.11.28.02.36,2.02,1.05,3.18,2.95,3.18,5.03,0,3.17-2.41,6-6.64,6Z"/>
      <g>
        <path class="cls-1" d="M57.14,15.23h.97c.76,0,1.2.5,1.2,1.14,0,.75-.53,1.21-1.21,1.21h-.96v-2.35ZM57.48,17.3h.55c.62,0,.91-.38.91-.92s-.35-.86-.89-.87h-.58v1.79Z"/>
        <path class="cls-1" d="M59.5,15.1h.33v.38h-.33v-.38ZM59.5,15.91h.33v1.68h-.33v-1.68Z"/>
        <path class="cls-1" d="M61.71,17.37c0,.63-.21,1-.9,1s-.8-.38-.83-.58h.33c.05.17.17.32.52.32.48,0,.57-.31.57-.72v-.09c-.1.19-.28.32-.63.32-.47,0-.8-.37-.8-.85,0-.54.39-.91.84-.91.38,0,.54.17.59.3,0-.08,0-.21,0-.25h.31c0,.16,0,.32,0,.49v.97ZM60.3,16.75c0,.34.22.59.55.59.35,0,.55-.22.55-.61s-.2-.6-.54-.6c-.39,0-.57.31-.57.62Z"/>
        <path class="cls-1" d="M61.97,15.1h.33v.38h-.33v-.38ZM61.97,15.91h.33v1.68h-.33v-1.68Z"/>
        <path class="cls-1" d="M62.38,15.91h.33v-.54h.33v.54h.44v.26h-.44v.91c0,.19.05.27.23.27.05,0,.12,0,.16-.01v.24c-.08.03-.17.03-.26.03-.35,0-.46-.16-.46-.49v-.95h-.33v-.26Z"/>
        <path class="cls-1" d="M65.02,17.17c0,.17,0,.38.02.42h-.31c-.01-.06-.02-.19-.02-.24-.09.17-.28.29-.63.29-.47,0-.65-.29-.65-.54,0-.43.39-.55.87-.55h.41v-.09c0-.18-.08-.35-.43-.35-.32,0-.39.14-.42.29h-.33c.02-.22.17-.54.75-.54.62,0,.75.3.75.58v.73ZM64.7,16.77c-.05,0-.16,0-.4,0-.38,0-.56.08-.56.3,0,.16.12.3.4.3.44,0,.56-.25.56-.54v-.07Z"/>
        <path class="cls-1" d="M65.28,17.59v-2.49h.33v2.49h-.33Z"/>
        <path class="cls-1" d="M59.3,20.27c-.13.4-.43.74-1.1.74-.78,0-1.21-.55-1.21-1.22s.47-1.23,1.23-1.23c.68,0,1,.37,1.09.75h-.35c-.1-.24-.29-.47-.75-.47-.54,0-.86.4-.86.93s.32.95.86.95c.44,0,.61-.19.74-.46h.35Z"/>
        <path class="cls-1" d="M61.15,20.12c0,.47-.3.89-.91.89-.57,0-.89-.42-.89-.88s.34-.89.9-.89.89.44.89.89ZM59.69,20.13c0,.32.2.62.57.62s.56-.28.56-.62-.2-.63-.57-.63-.56.29-.56.62Z"/>
        <path class="cls-1" d="M61.28,19.72c0-.14,0-.29,0-.43h.31c0,.07.01.16,0,.25.09-.14.25-.29.54-.29.28,0,.44.13.51.32.09-.14.25-.32.58-.32s.6.19.6.69v1.04h-.32v-1.02c0-.19-.06-.43-.36-.43-.26,0-.43.18-.43.54v.92h-.32v-1.04c0-.2-.07-.42-.36-.42-.31,0-.43.24-.43.56v.9h-.32v-1.25Z"/>
        <path class="cls-1" d="M64.1,19.72c0-.14,0-.29,0-.43h.31c0,.07.01.16.01.25.09-.14.25-.29.54-.29.28,0,.44.13.51.32.09-.14.25-.32.58-.32s.6.19.6.69v1.04h-.32v-1.02c0-.19-.06-.43-.36-.43-.26,0-.43.18-.43.54v.92h-.32v-1.04c0-.2-.07-.42-.36-.42-.31,0-.43.24-.43.56v.9h-.32v-1.25Z"/>
        <path class="cls-1" d="M68.48,20.47c0,.16,0,.33,0,.49h-.31s-.01-.16-.01-.28c-.08.19-.23.33-.6.33s-.63-.19-.63-.68v-1.04h.33v.98c0,.25.1.47.4.47.36,0,.51-.21.51-.69v-.76h.33v1.19Z"/>
        <path class="cls-1" d="M68.73,19.71c0-.14,0-.3,0-.42h.32c0,.06.01.19.01.31.07-.16.25-.35.61-.35.39,0,.65.24.65.7v1.02h-.33v-.96c0-.27-.1-.49-.41-.49-.34,0-.51.26-.51.65v.81h-.33v-1.26Z"/>
        <path class="cls-1" d="M70.58,18.47h.33v.38h-.33v-.38ZM70.58,19.29h.33v1.68h-.33v-1.68Z"/>
        <path class="cls-1" d="M72.75,20.44c-.08.3-.35.57-.83.57-.6,0-.89-.4-.89-.88s.32-.89.89-.89.78.36.82.58h-.33c-.06-.15-.19-.32-.5-.32-.35,0-.55.26-.55.62s.19.62.55.62c.27,0,.42-.12.5-.31h.33Z"/>
        <path class="cls-1" d="M74.36,20.55c0,.17,0,.38.02.42h-.31c-.01-.06-.02-.19-.02-.24-.09.17-.28.29-.63.29-.47,0-.65-.29-.65-.54,0-.43.39-.55.87-.55h.41v-.09c0-.18-.08-.35-.43-.35-.32,0-.39.14-.42.29h-.33c.02-.22.17-.54.75-.54.62,0,.75.3.75.58v.73ZM74.04,20.15c-.05,0-.16,0-.4,0-.38,0-.56.08-.56.3,0,.16.12.3.4.3.44,0,.56-.25.56-.54v-.07Z"/>
        <path class="cls-1" d="M74.36,19.29h.33v-.54h.33v.54h.44v.26h-.44v.91c0,.19.05.27.23.27.05,0,.12,0,.16-.01v.24c-.08.03-.17.03-.26.03-.35,0-.46-.16-.46-.49v-.95h-.33v-.26Z"/>
        <path class="cls-1" d="M75.54,18.47h.33v.38h-.33v-.38ZM75.54,19.29h.33v1.68h-.33v-1.68Z"/>
        <path class="cls-1" d="M77.79,20.12c0,.47-.3.89-.91.89-.57,0-.89-.42-.89-.88s.34-.89.9-.89.89.44.89.89ZM76.33,20.13c0,.32.2.62.57.62s.56-.28.56-.62-.2-.63-.57-.63-.56.29-.56.62Z"/>
        <path class="cls-1" d="M77.92,19.71c0-.14,0-.3,0-.42h.32c0,.06.01.19.01.31.07-.16.25-.35.61-.35.39,0,.65.24.65.7v1.02h-.33v-.96c0-.27-.1-.49-.41-.49-.34,0-.51.26-.51.65v.81h-.33v-1.26Z"/>
      </g>
    </g>
  </g>
</svg>