<?xml version="1.0" encoding="UTF-8"?>
<svg id="Layer_2" data-name="Layer 2" xmlns="http://www.w3.org/2000/svg" viewBox="0 0 477.02 150.25">
  <defs>
    <style>
      .cls-1 {
        fill: #00341a;
        stroke-width: 0px;
      }
    </style>
  </defs>
  <g id="Layer_1-2" data-name="Layer 1">
    <g>
      <polygon class="cls-1" points="94.27 3.73 0 3.73 0 33.94 41.39 33.94 41.39 150.25 76.78 150.25 76.78 33.94 94.27 33.94 94.27 3.73"/>
      <path class="cls-1" d="M340.64,31.4c1.88-1.14,4-1.92,6.36-2.32,2.35-.4,4.68-.61,6.97-.61,4.16,0,8.47.99,12.93,2.93V1.13c-4.15-.75-8.26-1.13-12.32-1.13-6.73,0-13.4.84-19.99,2.52-6.6,1.69-12.52,4.34-17.77,7.98-5.25,3.63-9.49,8.28-12.72,13.93-2.62,4.59-4.16,9.94-4.66,16.04l11.77,32.8c3.3,2.94,7.01,5.39,11.16,7.31,4.37,2.02,8.85,3.77,13.43,5.25,4.71,1.48,8.92,2.86,12.62,4.14,3.7,1.28,6.8,2.69,9.29,4.24,2.49,1.55,4.41,3.27,5.75,5.15,1.35,1.89,2.02,4.17,2.02,6.87,0,2.83-.54,5.25-1.62,7.27-1.08,2.02-2.52,3.63-4.34,4.85-1.82,1.21-3.94,2.09-6.36,2.62-2.42.54-4.92.81-7.47.81-5.65,0-11.34-1.45-17.07-4.34-.67-.34-1.32-.69-1.95-1.04l12.04,33.57c2.31.19,4.63.29,6.97.29,7,0,13.8-.94,20.4-2.83.27-.08.54-.17.81-.25V63.37c-3.74-1.35-7.38-2.62-10.91-3.8-3.37-1.08-6.4-2.12-9.09-3.13-2.69-1.01-5.02-2.12-6.97-3.33-1.95-1.21-3.43-2.63-4.44-4.24-1.01-1.62-1.51-3.64-1.51-6.06,0-2.83.64-5.15,1.92-6.97,1.28-1.82,2.86-3.3,4.75-4.44Z"/>
      <path class="cls-1" d="M374.78,150.25V3.73h98.51v29.8h-64.36v27.73h60.85v28.35h-60.85v30.42h68.09v30.22h-102.24Z"/>
      <path class="cls-1" d="M193.24,103.17l-9.54-15.63c9.33-2.84,16.66-7.55,22.01-14.1l7.99-19.04c.27-2.06.42-4.18.42-6.39,0-8.41-1.59-15.45-4.76-21.11-3.18-5.66-7.42-10.21-12.73-13.66-5.31-3.45-11.32-5.9-18.01-7.35-6.69-1.45-13.56-2.17-20.59-2.17h-55.88v146.53h34.56v-58.16h12.06l27.79,50.81,16.67-39.73ZM162.3,65.71c-3.05.49-6.03.72-8.94.72h-16.84v-34.15h18.92c2.63,0,5.37.21,8.21.62,2.84.41,5.41,1.21,7.7,2.38,2.29,1.17,4.16,2.83,5.61,4.97,1.45,2.14,2.19,4.93,2.19,8.38,0,3.73-.8,6.76-2.39,9.11-1.59,2.35-3.64,4.14-6.13,5.38-2.5,1.24-5.27,2.1-8.32,2.59Z"/>
      <path class="cls-1" d="M298.08,148.79l-19.8-55.66-18.21-51.6-18.63,51.6-10.14,28.35-10.76,28.77h-38.49L243.51,3.73h34.36l52.05,145.06h-31.84Z"/>
    </g>
  </g>
</svg>