<svg xmlns="http://www.w3.org/2000/svg" viewBox="0 0 223.73 47.93"><defs><style>.a{fill:#00341a;}</style></defs><path class="a" d="M171.42,237a3.35,3.35,0,0,0-3.35,3.35v.88a18.42,18.42,0,1,0,0,28.4v.87a3.35,3.35,0,0,0,6.7,0V240.35a3.35,3.35,0,0,0-3.35-3.35m-15.08,30.16a11.73,11.73,0,1,1,11.73-11.73,11.74,11.74,0,0,1-11.73,11.73" transform="translate(-137.91 -225.92)"/><path class="a" d="M315.55,237a3.35,3.35,0,0,0-3.35,3.35v.88a18.42,18.42,0,1,0,0,28.4v.87a3.35,3.35,0,1,0,6.7,0V240.35a3.35,3.35,0,0,0-3.35-3.35m-15.08,30.16a11.73,11.73,0,1,1,11.73-11.73,11.74,11.74,0,0,1-11.73,11.73" transform="translate(-137.91 -225.92)"/><path class="a" d="M274,237.24a3.34,3.34,0,0,0-4.35,1.86l-9,22.41-9-22.41a3.35,3.35,0,0,0-6.21,0l-9,22.41-9-22.41a3.35,3.35,0,1,0-6.21,2.49l12.09,30.16a3.34,3.34,0,0,0,6.21,0l9-22.41,9,22.41a3.34,3.34,0,0,0,6.21,0l12.1-30.16a3.35,3.35,0,0,0-1.86-4.35Z" transform="translate(-137.91 -225.92)"/><path class="a" d="M358.3,237a3.35,3.35,0,0,0-3.35,3.35V261l-18.23-22.73a3.35,3.35,0,0,0-6,2.09V270.5a3.35,3.35,0,1,0,6.69,0V249.87l18.23,22.73a3.35,3.35,0,0,0,2.61,1.25,3.24,3.24,0,0,0,1.11-.19,3.34,3.34,0,0,0,2.24-3.16V240.35a3.35,3.35,0,0,0-3.35-3.35Z" transform="translate(-137.91 -225.92)"/><path class="a" d="M200.09,255.43l13.3-12.66a3.35,3.35,0,0,0-4.62-4.85l-15.26,14.52V229.27a3.35,3.35,0,1,0-6.69,0v41.24a3.35,3.35,0,0,0,6.69,0v-8.82l1.73-1.64,13.53,12.88a3.35,3.35,0,0,0,4.62-4.85Z" transform="translate(-137.91 -225.92)"/></svg>