<svg xmlns="http://www.w3.org/2000/svg" viewBox="0 0 191.79 48.91"><defs><style>.a{fill:#00341a;}</style></defs><path class="a" d="M180.37,238a7.27,7.27,0,0,0-3.38-2.33,12,12,0,0,0-4-.76,10.82,10.82,0,0,0-2.3.26,8.73,8.73,0,0,0-2.24.83,4.89,4.89,0,0,0-1.71,1.47,3.76,3.76,0,0,0-.66,2.24,3.71,3.71,0,0,0,1.58,3.22,14.9,14.9,0,0,0,4,1.91c1.6.52,3.32,1,5.16,1.57a21.62,21.62,0,0,1,5.16,2.24,12.28,12.28,0,0,1,4,3.88,11.84,11.84,0,0,1,1.57,6.51A15,15,0,0,1,186,265.8a13.82,13.82,0,0,1-3.91,4.8,16.64,16.64,0,0,1-5.72,2.82,26.26,26.26,0,0,1-15.29-.46,21.17,21.17,0,0,1-7.23-4.47l7.3-8a10.62,10.62,0,0,0,4,3.26,11.44,11.44,0,0,0,5,1.15,11.06,11.06,0,0,0,2.53-.3,8.22,8.22,0,0,0,2.3-.89,4.77,4.77,0,0,0,1.64-1.51,3.72,3.72,0,0,0,.63-2.17,4,4,0,0,0-1.61-3.32,15,15,0,0,0-4-2.07q-2.44-.85-5.26-1.71a23.23,23.23,0,0,1-5.26-2.3A12.7,12.7,0,0,1,157,246.8a11,11,0,0,1-1.61-6.25,14.08,14.08,0,0,1,1.48-6.57,14.27,14.27,0,0,1,3.95-4.73,17.07,17.07,0,0,1,5.68-2.86,23.13,23.13,0,0,1,6.64-1,26.33,26.33,0,0,1,7.63,1.12,17.72,17.72,0,0,1,6.64,3.75Z" transform="translate(-153.88 -225.43)"/><rect class="a" x="85.22" y="1.18" width="10.26" height="46.54"/><polygon class="a" points="99.53 1.18 113.47 1.18 133.26 33.53 133.39 33.53 133.39 1.18 143.65 1.18 143.65 47.73 130.23 47.73 109.92 14.59 109.79 14.59 109.79 47.73 99.53 47.73 99.53 1.18"/><path class="a" d="M345.67,269.87a37,37,0,0,1-9.46,3.42,48.18,48.18,0,0,1-10.06,1,28.67,28.67,0,0,1-10.06-1.71,22.86,22.86,0,0,1-7.95-4.89,22.17,22.17,0,0,1-5.23-7.73,28.32,28.32,0,0,1,0-20.24,22.17,22.17,0,0,1,5.23-7.73,23,23,0,0,1,7.95-4.9,28.9,28.9,0,0,1,10.06-1.71,37.24,37.24,0,0,1,10.29,1.35,20.23,20.23,0,0,1,8.25,4.64l-7.23,7.89a14.32,14.32,0,0,0-4.74-3.29,16.74,16.74,0,0,0-6.57-1.12A15.17,15.17,0,0,0,320.2,236a13.41,13.41,0,0,0-4.57,3.12,13.78,13.78,0,0,0-2.92,4.77,18.13,18.13,0,0,0,0,12,13.84,13.84,0,0,0,2.92,4.74,13.41,13.41,0,0,0,4.57,3.12,15.17,15.17,0,0,0,5.95,1.12,19.38,19.38,0,0,0,5.78-.76,21.64,21.64,0,0,0,3.88-1.54V255h-8.35v-9.47h18.21Z" transform="translate(-153.88 -225.43)"/><path class="a" d="M235.17,226.62h-12.3v31.2l1.93,5.34a1,1,0,0,1-.94,1.34h-21a1.14,1.14,0,0,1-1.07-1.54l1.93-5.14v-31.2H191v34a12.62,12.62,0,0,0,12.58,12.58h19a12.62,12.62,0,0,0,12.58-12.58v-34" transform="translate(-153.88 -225.43)"/><rect class="a" x="53.71" y="1.18" width="11.38" height="31.21"/></svg>