<svg viewBox="32.69824 30.338560411311054 163.27608 32.70539845758355" xmlns="http://www.w3.org/2000/svg" data-name="Layer 1" id="Layer_1" style="max-height: 500px" width="163.27608" height="32.70539845758355">
  <defs>
    <style>
      .cls-1 {
        fill: #05331c;
      }
    </style>
  </defs>
  <path d="M56.44,60.23c-.36.34-.91.56-1.63.66-.35.05-.9.12-1.65.2-.75.08-1.56.15-2.43.22-.87.07-1.74.13-2.62.18s-1.61.08-2.23.08c-1.61,0-3.09-.19-4.44-.56-1.35-.37-2.51-1-3.48-1.86-.97-.87-1.72-2.03-2.25-3.47-.53-1.45-.8-3.24-.8-5.38v-18.1c0-.22.08-.4.24-.54.16-.15.35-.22.56-.22h3.98c.21,0,.4.07.56.22.16.15.24.33.24.54v18.14c0,1.15.07,2.14.22,2.98.15.83.42,1.52.82,2.07.4.55.95.96,1.65,1.23.7.27,1.59.4,2.69.4.4,0,.84,0,1.32-.02.48-.01.98-.04,1.48-.08.51-.04,1-.07,1.47-.1.47-.03.89-.07,1.27-.12v-24.49c0-.51.26-.76.77-.76h4c.22,0,.4.07.57.22.16.15.24.33.24.54v26.26c0,.85-.18,1.45-.54,1.79" class="cls-1"/>
  <path d="M84.04,53.06c0,1.61-.29,2.96-.86,4.06-.58,1.1-1.39,1.99-2.45,2.67-1.06.68-2.33,1.18-3.83,1.49-1.5.31-3.18.46-5.06.46-1.63,0-3.05-.04-4.24-.12-1.19-.08-2.09-.19-2.71-.32-.67-.13-1.16-.34-1.46-.62-.31-.28-.46-.79-.46-1.54v-25.29c0-.72.14-1.24.42-1.55.28-.31.74-.51,1.38-.62.54-.08,1.39-.17,2.57-.26,1.18-.09,2.55-.14,4.13-.14,1.82,0,3.49.14,5,.42,1.51.28,2.82.74,3.92,1.39,1.1.64,1.95,1.48,2.55,2.51.6,1.03.9,2.31.9,3.83v.8c0,1.34-.31,2.55-.92,3.63-.62,1.08-1.54,1.89-2.77,2.43,1.23.54,2.19,1.3,2.87,2.31.68,1,1.03,2.27,1.03,3.8v.68ZM78.42,39.71c0-1.4-.52-2.39-1.54-2.99-1.03-.59-2.83-.89-5.4-.89-.48,0-.98,0-1.5.02-.52.01-1,.03-1.43.06v8.19h5.1c.94,0,1.71-.1,2.33-.3.61-.2,1.1-.48,1.47-.83.36-.35.61-.76.76-1.23.15-.47.22-.96.22-1.48v-.56ZM78.58,52.46c0-.56-.08-1.1-.24-1.61-.16-.51-.44-.96-.82-1.35-.39-.39-.9-.7-1.53-.94-.63-.24-1.41-.36-2.35-.36h-5.1v8.83c.48,0,1.04.01,1.69.04.64.03,1.18.04,1.6.04,1.29,0,2.36-.08,3.21-.24.85-.16,1.54-.41,2.07-.76s.9-.78,1.12-1.3c.23-.52.34-1.13.34-1.83v-.52Z" class="cls-1"/>
  <path d="M111.73,61.14c0,.32-.16.48-.48.48h-4.9c-.22,0-.37-.08-.48-.24-.11-.16-.22-.35-.32-.56l-5.78-10.68h-.56c-.54,0-1.15-.02-1.85-.06-.7-.04-1.27-.07-1.73-.1v10.84c0,.22-.07.4-.22.56-.15.16-.33.24-.54.24h-4.01c-.22,0-.4-.08-.56-.24-.16-.16-.24-.35-.24-.56v-27.62c0-.4.11-.69.34-.86.23-.17.54-.29.95-.34,1.04-.16,2.25-.29,3.62-.38,1.37-.09,2.79-.14,4.26-.14,1.55,0,3.03.16,4.43.46,1.4.31,2.62.81,3.68,1.5,1.06.7,1.9,1.63,2.53,2.79.63,1.16.95,2.6.95,4.31v.36c0,2.14-.49,3.88-1.48,5.22-.98,1.34-2.31,2.33-3.98,2.97l6.3,11.72c.05.08.08.19.08.32M105.22,40.55c0-1.53-.5-2.62-1.51-3.29-1-.67-2.51-1-4.51-1-.22,0-.49,0-.82.02-.34.02-.68.03-1.03.04s-.67.03-.98.04c-.31.01-.56.03-.74.06v9.03c.16,0,.41,0,.74.02.33.01.68.03,1.04.04.36.02.71.03,1.04.04.34.01.58.02.74.02,2.09,0,3.61-.33,4.57-1,.97-.67,1.45-1.89,1.45-3.65v-.36Z" class="cls-1"/>
  <path d="M138.95,60.72c0,.22-.08.4-.22.56-.15.16-.33.24-.54.24h-4.08c-.22,0-.39-.08-.53-.24-.14-.16-.2-.35-.2-.56v-10.6h-10.04v10.6c0,.22-.07.4-.22.56-.15.16-.33.24-.54.24h-4.06c-.21,0-.39-.08-.54-.24-.15-.16-.22-.35-.22-.56v-20.68c0-1.69.22-3.08.66-4.18.44-1.1,1.07-1.97,1.87-2.63.8-.66,1.77-1.11,2.9-1.36,1.12-.25,2.39-.38,3.78-.38h2.78c1.39,0,2.66.13,3.78.38,1.13.26,2.09.71,2.9,1.36.8.66,1.43,1.53,1.87,2.63.44,1.1.66,2.49.66,4.18v20.68ZM133.37,40.05c0-1.39-.26-2.36-.76-2.89-.51-.54-1.47-.8-2.89-.8h-2.77c-.7,0-1.28.06-1.75.18-.47.12-.84.32-1.12.6-.28.28-.47.66-.58,1.14-.11.48-.16,1.07-.16,1.77v5.38h10.04v-5.38Z" class="cls-1"/>
  <path d="M166.88,61.38c-.15.16-.33.24-.54.24h-4.11c-.21,0-.39-.08-.52-.24s-.2-.35-.2-.56v-18.14c0-2.3-.43-3.95-1.29-4.94-.86-.99-2.25-1.49-4.18-1.49-1.02,0-2.03.03-3.03.1-1.01.07-1.84.14-2.51.22v24.25c0,.22-.08.4-.22.56-.15.16-.33.24-.54.24h-4.05c-.22,0-.4-.08-.54-.24-.15-.16-.22-.35-.22-.56v-26.62c0-.75.13-1.25.38-1.5.25-.26.69-.44,1.3-.54.54-.08,1.19-.16,1.97-.24.78-.08,1.58-.15,2.4-.22.83-.07,1.64-.12,2.42-.16s1.48-.06,2.06-.06c1.87,0,3.53.19,4.97.56,1.44.38,2.66,1,3.65,1.87.99.87,1.73,2.02,2.24,3.45.51,1.43.76,3.22.76,5.36v18.1c0,.22-.08.4-.22.56" class="cls-1"/>
  <path d="M194.56,49.45c0,3.99-1.09,7.03-3.28,9.13-2.18,2.1-5.3,3.15-9.35,3.15-.72,0-1.48-.01-2.27-.04-.79-.03-1.55-.07-2.29-.12-.74-.05-1.41-.11-2.01-.16-.6-.05-1.05-.11-1.35-.16-.35-.05-.61-.17-.78-.36-.17-.19-.26-.48-.26-.88v-27.02c0-.4.09-.7.26-.88.17-.19.43-.31.78-.36.29-.05.74-.11,1.35-.16.6-.05,1.27-.11,2.01-.16.74-.05,1.5-.09,2.29-.12.79-.03,1.55-.04,2.27-.04,4.05,0,7.17,1.05,9.35,3.15,2.19,2.1,3.28,5.15,3.28,9.13v5.9ZM188.98,43.56c0-1.5-.18-2.74-.54-3.72-.36-.98-.86-1.76-1.48-2.33-.63-.58-1.38-.98-2.25-1.21-.87-.23-1.8-.34-2.79-.34-.75,0-1.39.01-1.93.04-.54.03-1.02.05-1.44.08v20.88c.43.03.91.05,1.44.08.53.03,1.18.04,1.93.04.99,0,1.92-.11,2.79-.34.87-.23,1.62-.63,2.25-1.21.63-.58,1.12-1.35,1.48-2.33s.54-2.22.54-3.72v-5.91Z" class="cls-1"/>
</svg>