<svg viewBox="29.820149999999998 35.47133333333333 212.2335 33.05283333333333" xmlns="http://www.w3.org/2000/svg" data-name="Layer 1" id="Layer_1" style="max-height: 500px" width="212.2335" height="33.05283333333333">
  <defs>
    <style>
      .cls-1 {
        fill: #05331c;
      }
    </style>
  </defs>
  <path d="M123.55,52.12c1.96-.49,3.49-1.4,4.59-2.71,1.1-1.32,1.64-2.94,1.64-4.88,0-2.74-.86-4.74-2.59-6.01-1.72-1.27-4.53-1.9-8.42-1.9h-12.54v3.77h4.09v22.66h-5.29l-8.17-22.78h3.63v-3.65h-15.69l-1.31,3.65h4.94l-8.14,22.78h-3.65l-1.65,3.77h13.63v-3.77h-3.83l2.34-6.85h10.96l2.34,6.85h-3.95v3.77h22.24v-3.77h-3.85v-10.3h4.23l6.67,14.07h6.77v-3.77h-3.69l-5.33-10.92ZM88.32,52.64l4.27-12.38h.14l4.17,12.38h-8.58ZM114.89,48.96v-8.58h4.67c1.91,0,3.31.33,4.19.98.88.65,1.32,1.68,1.32,3.09,0,1.64-.47,2.81-1.42,3.49-.95.68-2.4,1.02-4.37,1.02h-4.39Z" class="cls-1"/>
  <path d="M157.73,54.67c-.85,2.71-2.21,4.81-4.07,6.28-1.86,1.48-3.99,2.21-6.41,2.21-1.96,0-3.75-.53-5.35-1.58-1.6-1.06-2.86-2.47-3.78-4.23-.92-1.76-1.37-3.69-1.37-5.77s.44-3.9,1.31-5.66c.88-1.76,2.09-3.16,3.66-4.21,1.56-1.05,3.34-1.57,5.33-1.57s3.95.54,5.67,1.62c1.72,1.08,3.08,2.59,4.07,4.53h3.93v-9.68h-3.85v3.33c-1.4-1.24-2.93-2.19-4.59-2.85-1.66-.65-3.47-.98-5.43-.98-2.93,0-5.52.66-7.79,1.97-2.27,1.32-4.05,3.17-5.34,5.56-1.29,2.39-1.93,5.12-1.93,8.18,0,2.82.63,5.41,1.89,7.76,1.26,2.36,3.03,4.23,5.3,5.63,2.27,1.4,4.87,2.09,7.79,2.09,3.55,0,6.65-.93,9.29-2.78,2.64-1.85,4.48-4.46,5.52-7.82l-3.85-2.04Z" class="cls-1"/>
  <polygon points="190.56 40.38 190.56 36.61 179 36.61 179 40.38 182.52 40.38 182.52 48.92 169.4 48.92 169.4 40.38 172.97 40.38 172.97 36.61 161.42 36.61 161.42 40.38 164.83 40.38 164.83 63.04 161.42 63.04 161.42 66.81 172.97 66.81 172.97 63.04 169.4 63.04 169.4 52.68 182.52 52.68 182.52 63.04 179 63.04 179 66.81 190.56 66.81 190.56 63.04 187.07 63.04 187.07 40.38 190.56 40.38" class="cls-1"/>
  <polygon points="75.85 40.38 79.5 40.38 80.98 36.61 70.52 36.61 54.37 57.29 54.57 36.61 44.21 36.61 42.73 40.38 46.39 40.38 37.46 63.04 33.79 63.04 32.31 66.81 43.03 66.81 44.51 63.04 41.19 63.04 50.12 40.38 49.87 67.13 50.78 67.13 71.7 40.38 62.77 63.04 59.2 63.04 57.71 66.81 69.08 66.81 70.82 63.04 66.92 63.04 75.85 40.38" class="cls-1"/>
  <path d="M197.72,36.34c-1.17,0-2.02.85-2.02,2.02s.85,2.02,2.02,2.02,2.02-.85,2.02-2.02-.9-2.02-2.02-2.02M197.72,39.97c-.94,0-1.62-.72-1.62-1.61,0-.94.68-1.61,1.62-1.61s1.61.72,1.61,1.61c0,.94-.72,1.61-1.61,1.61M198.62,37.93c0-.42-.34-.78-.76-.78h-.91v2.42h.36v-.85h.52l.48.85h.4l-.52-.93c.25-.12.43-.41.43-.71M197.81,38.35h-.49v-.85h.49c.25,0,.45.17.45.43s-.2.43-.45.43" class="cls-1"/>
  <path d="M204.08,36.98h2.48c.41,0,.75.06,1.01.18.5.23.76.65.76,1.27,0,.32-.07.58-.2.79-.13.2-.32.37-.56.49.21.08.37.2.47.34.11.14.17.36.18.68l.03.72c0,.2.02.36.05.46.04.17.12.28.23.33v.12h-.89s-.04-.11-.06-.18c-.01-.07-.03-.21-.04-.42l-.04-.89c-.02-.35-.15-.59-.39-.7-.14-.07-.36-.1-.65-.1h-1.65v2.3h-.73v-5.36ZM206.48,39.44c.34,0,.61-.07.81-.2.2-.14.3-.38.3-.74,0-.38-.14-.64-.42-.78-.15-.07-.35-.11-.59-.11h-1.77v1.83h1.68Z" class="cls-1"/>
  <path d="M211.73,38.54c.26.13.46.3.59.51.13.2.22.43.26.69.04.18.06.47.06.86h-2.86c.01.4.11.71.28.95.17.24.45.36.81.36.34,0,.62-.11.82-.34.12-.13.2-.28.25-.46h.65c-.02.14-.07.3-.17.48-.1.18-.2.32-.32.43-.2.19-.45.33-.74.39-.16.04-.34.06-.54.06-.49,0-.9-.18-1.24-.53-.34-.35-.51-.85-.51-1.49s.17-1.14.51-1.53c.34-.39.79-.59,1.34-.59.28,0,.55.07.81.2M211.98,40.08c-.03-.28-.09-.51-.19-.68-.18-.32-.48-.47-.9-.47-.3,0-.55.11-.76.33-.2.22-.31.49-.32.83h2.17Z" class="cls-1"/>
  <rect height="5.36" width=".66" y="36.98" x="213.48" class="cls-1"/>
  <path d="M217.21,39.97c.15-.02.25-.08.3-.19.03-.06.04-.14.04-.25,0-.22-.08-.39-.24-.49-.16-.1-.39-.15-.68-.15-.34,0-.59.09-.73.28-.08.1-.13.25-.16.46h-.61c.01-.48.17-.82.47-1.01.3-.19.65-.28,1.05-.28.46,0,.83.09,1.12.26.28.18.43.45.43.82v2.25c0,.07.01.12.04.16.03.04.09.06.18.06.03,0,.06,0,.1,0,.04,0,.08,0,.12-.02v.49c-.1.03-.18.05-.23.05-.05,0-.13.01-.22.01-.23,0-.39-.08-.49-.24-.05-.09-.09-.21-.11-.36-.13.17-.33.33-.58.46-.25.13-.53.19-.83.19-.36,0-.66-.11-.89-.33-.23-.22-.34-.5-.34-.83,0-.36.11-.64.34-.84.23-.2.52-.32.89-.37l1.05-.13ZM215.83,41.75c.14.11.3.16.49.16.23,0,.45-.05.67-.16.37-.18.55-.47.55-.87v-.53c-.08.05-.18.09-.31.13-.13.03-.25.06-.37.07l-.4.05c-.24.03-.42.08-.54.15-.2.11-.3.3-.3.55,0,.19.07.34.21.45" class="cls-1"/>
  <path d="M219.4,37.34h.66v1.09h.62v.54h-.62v2.55c0,.14.05.23.14.27.05.03.14.04.26.04.03,0,.07,0,.1,0,.04,0,.08,0,.13,0v.52c-.08.02-.15.04-.24.05-.08,0-.17.01-.26.01-.31,0-.51-.08-.62-.23-.11-.16-.16-.36-.16-.61v-2.59h-.53v-.54h.53v-1.09Z" class="cls-1"/>
  <path d="M221.35,36.98h.67v.74h-.67v-.74ZM221.35,38.45h.67v3.89h-.67v-3.89Z" class="cls-1"/>
  <path d="M225.86,38.82c.35.34.52.83.52,1.48s-.15,1.15-.46,1.56c-.31.41-.78.62-1.43.62-.54,0-.96-.18-1.28-.55-.32-.36-.47-.85-.47-1.47,0-.66.17-1.18.5-1.57.33-.39.78-.58,1.34-.58.5,0,.93.17,1.28.5M225.46,41.42c.16-.33.24-.7.24-1.1,0-.37-.06-.66-.18-.89-.18-.36-.5-.54-.96-.54-.4,0-.69.15-.88.46-.18.31-.27.68-.27,1.11s.09.76.27,1.04c.18.28.47.42.87.42.44,0,.73-.17.9-.49" class="cls-1"/>
  <path d="M227.17,38.43h.62v.55c.18-.23.38-.39.59-.49.21-.1.44-.15.69-.15.55,0,.93.19,1.12.58.11.21.16.51.16.91v2.51h-.67v-2.46c0-.24-.04-.43-.11-.58-.12-.24-.33-.37-.64-.37-.16,0-.28.02-.38.05-.18.05-.34.16-.47.32-.11.13-.18.26-.21.4-.03.14-.05.33-.05.59v2.05h-.66v-3.91Z" class="cls-1"/>
  <path d="M204.08,44.3h2.48c.41,0,.75.06,1.01.18.5.23.76.65.76,1.27,0,.32-.07.58-.2.79-.13.2-.32.37-.56.49.21.08.37.2.47.34.11.14.17.36.18.68l.03.72c0,.2.02.36.05.46.04.17.12.28.23.33v.12h-.89s-.04-.11-.06-.18c-.01-.07-.03-.21-.04-.42l-.04-.89c-.02-.35-.15-.59-.39-.7-.14-.07-.36-.1-.65-.1h-1.65v2.3h-.73v-5.36ZM206.48,46.75c.34,0,.61-.07.81-.2.2-.14.3-.38.3-.74,0-.38-.14-.64-.42-.78-.15-.07-.35-.11-.59-.11h-1.77v1.83h1.68Z" class="cls-1"/>
  <path d="M211.73,45.86c.26.13.46.3.59.51.13.2.22.43.26.69.04.18.06.47.06.86h-2.86c.01.4.11.71.28.95.17.24.45.36.81.36.34,0,.62-.11.82-.34.12-.13.2-.28.25-.46h.65c-.02.14-.07.3-.17.48-.1.18-.2.32-.32.43-.2.19-.45.33-.74.39-.16.04-.34.06-.54.06-.49,0-.9-.18-1.24-.53-.34-.35-.51-.85-.51-1.49s.17-1.14.51-1.53c.34-.39.79-.59,1.34-.59.28,0,.55.07.81.2M211.98,47.39c-.03-.28-.09-.51-.19-.68-.18-.32-.48-.47-.9-.47-.3,0-.55.11-.76.33-.2.22-.31.49-.32.83h2.17Z" class="cls-1"/>
  <path d="M213.41,45.77h.64v.52c.13-.18.28-.32.43-.41.22-.15.48-.22.78-.22.44,0,.82.17,1.13.51.31.34.46.82.46,1.45,0,.85-.22,1.46-.67,1.82-.28.23-.61.35-.99.35-.29,0-.54-.06-.74-.19-.12-.07-.25-.2-.39-.38v2h-.66v-5.45ZM215.87,48.83c.2-.26.3-.64.3-1.15,0-.31-.05-.58-.14-.8-.17-.43-.48-.65-.93-.65s-.77.23-.93.68c-.09.24-.14.55-.14.93,0,.3.04.56.14.77.17.4.48.61.93.61.31,0,.56-.13.76-.38" class="cls-1"/>
  <path d="M218.27,45.75v2.59c0,.2.03.36.1.49.12.23.33.35.65.35.46,0,.77-.2.93-.61.09-.22.14-.52.14-.9v-1.92h.66v3.91h-.62v-.58c-.08.15-.18.27-.31.38-.25.2-.55.31-.91.31-.56,0-.94-.19-1.14-.56-.11-.2-.16-.47-.16-.8v-2.66h.67Z" class="cls-1"/>
  <path d="M221.9,44.66h.66v1.09h.62v.54h-.62v2.55c0,.14.05.23.14.27.05.03.14.04.26.04.03,0,.07,0,.1,0,.04,0,.08,0,.13,0v.52c-.08.02-.15.04-.24.05-.08,0-.17.01-.26.01-.31,0-.51-.08-.62-.23-.11-.16-.16-.36-.16-.61v-2.59h-.53v-.54h.53v-1.09Z" class="cls-1"/>
  <path d="M225.94,47.29c.15-.02.25-.08.3-.19.03-.06.04-.14.04-.25,0-.22-.08-.39-.24-.49-.16-.1-.39-.15-.68-.15-.34,0-.59.09-.73.28-.08.1-.13.25-.16.46h-.61c.01-.48.17-.82.47-1.01.3-.19.65-.28,1.05-.28.46,0,.83.09,1.12.26.28.18.43.45.43.82v2.25c0,.07.01.12.04.16.03.04.09.06.18.06.03,0,.06,0,.1,0,.04,0,.08,0,.12-.02v.49c-.1.03-.18.05-.23.05-.05,0-.13.01-.22.01-.23,0-.39-.08-.49-.24-.05-.09-.09-.21-.11-.36-.13.17-.33.33-.58.46-.25.13-.53.19-.83.19-.36,0-.66-.11-.89-.33-.23-.22-.34-.5-.34-.83,0-.36.11-.64.34-.84.23-.2.52-.32.89-.37l1.05-.13ZM224.56,49.07c.14.11.3.16.49.16.23,0,.45-.05.67-.16.37-.18.55-.47.55-.87v-.53c-.08.05-.18.09-.31.13-.13.03-.25.06-.37.07l-.4.05c-.24.03-.42.08-.54.15-.2.11-.3.3-.3.55,0,.19.07.34.21.45" class="cls-1"/>
  <path d="M228.13,44.66h.66v1.09h.62v.54h-.62v2.55c0,.14.05.23.14.27.05.03.14.04.26.04.03,0,.07,0,.1,0,.04,0,.08,0,.13,0v.52c-.08.02-.15.04-.24.05-.08,0-.17.01-.26.01-.31,0-.51-.08-.62-.23-.11-.16-.16-.36-.16-.61v-2.59h-.53v-.54h.53v-1.09Z" class="cls-1"/>
  <path d="M230.08,44.3h.67v.74h-.67v-.74ZM230.08,45.77h.67v3.89h-.67v-3.89Z" class="cls-1"/>
  <path d="M234.59,46.14c.35.34.52.83.52,1.48s-.15,1.15-.46,1.56c-.31.41-.78.62-1.43.62-.54,0-.96-.18-1.28-.55-.32-.36-.47-.85-.47-1.47,0-.66.17-1.18.5-1.57.33-.39.78-.58,1.34-.58.5,0,.93.17,1.28.5M234.19,48.74c.16-.33.24-.7.24-1.1,0-.37-.06-.66-.18-.89-.18-.36-.5-.54-.96-.54-.4,0-.69.15-.88.46-.18.31-.27.68-.27,1.11s.09.76.27,1.04c.18.28.47.42.87.42.44,0,.73-.17.9-.49" class="cls-1"/>
  <path d="M235.9,45.75h.62v.55c.18-.23.38-.39.59-.49.21-.1.44-.15.69-.15.55,0,.93.19,1.12.58.11.21.16.51.16.91v2.51h-.67v-2.46c0-.24-.04-.43-.11-.58-.12-.24-.33-.37-.64-.37-.16,0-.28.02-.38.05-.18.05-.34.16-.47.32-.11.13-.18.26-.21.4-.03.14-.05.33-.05.59v2.05h-.66v-3.91Z" class="cls-1"/>
  <rect height=".74" width=".67" y="41.54" x="231.47" class="cls-1"/>
  <rect height=".74" width=".67" y="48.92" x="240.03" class="cls-1"/>
</svg>