<svg viewBox="27.823509999999995 9.921610738255033 141.25781999999998 61.8641610738255" xmlns="http://www.w3.org/2000/svg" data-name="Layer 1" id="Layer_1" style="max-height: 500px" width="141.25781999999998" height="61.8641610738255">
  <defs>
    <style>
      .cls-1 {
        fill: #05331c;
      }
    </style>
  </defs>
  <path d="M166.65,66.8c-.24-.23-.52-.4-.82-.55-.35-.17-.7-.34-1.04-.51-.23-.12-.46-.24-.68-.37-.14-.08-.26-.18-.36-.31-.38-.49-.19-1.12.39-1.32.25-.09.51-.08.77-.07.63.04,1,.39,1.09,1.01.02.15-.05.36.07.45.14.11.32-.03.49-.06.01,0,.03,0,.04,0,.17-.04.37-.03.47-.17.1-.14,0-.33-.02-.5-.13-.75-.56-1.24-1.28-1.48-.43-.14-.87-.19-1.32-.15-.3.03-.59.07-.88.19-.75.3-1.12.95-1.07,1.78.04.56.3,1.01.74,1.35.26.2.55.37.84.51.4.2.79.4,1.19.6.23.12.45.26.63.45.5.55.28,1.33-.43,1.52-.4.11-.8.1-1.19,0-.39-.1-.65-.34-.79-.73-.05-.14-.08-.28-.09-.42-.01-.14-.03-.28-.05-.47-.34.09-.63.16-.92.23-.1.02-.15.07-.15.17.02.75.33,1.65,1.4,2,.61.2,1.24.22,1.87.12.3-.05.58-.14.85-.3.36-.21.63-.51.75-.91.25-.79.11-1.5-.5-2.09Z" class="cls-1"/>
  <path d="M97.75,63.28c.05-.1.1-.21.13-.31.02-.06-.01-.12-.08-.13-.05-.01-.11-.02-.17-.02-.46,0-.92,0-1.38,0-.17,0-.27.06-.33.21-.4.92-.93,1.78-1.16,2.77-.02.08-.06.13-.14.13-.07,0-.1-.05-.11-.11-.01-.04-.03-.08-.04-.12-.26-.97-.77-1.82-1.18-2.72,0-.01-.01-.03-.02-.04-.05-.08-.11-.12-.21-.12-.53,0-1.06,0-1.6,0-.15,0-.21.09-.16.22.05.1.1.21.15.31.68,1.3,1.35,2.6,2.03,3.89.1.2.17.39.15.61-.01.3,0,.6,0,.9h0c0,.36,0,.72,0,1.08,0,.21.03.24.21.24.49,0,.98,0,1.47,0,.2,0,.23-.03.23-.22,0-.62.01-1.24,0-1.85,0-.33.07-.61.22-.9.67-1.27,1.33-2.54,1.99-3.82Z" class="cls-1"/>
  <path d="M83.88,62.82c-.7,0-1.41,0-2.11,0-.12,0-.19.05-.22.16-.09.27-.19.54-.28.81-.44,1.35-.95,2.68-1.25,4.07-.03.16-.1.23-.17.21-.11-.03-.1-.13-.12-.21-.19-.84-.45-1.66-.73-2.48-.27-.77-.53-1.55-.8-2.32-.08-.23-.1-.24-.34-.25-.35,0-.69,0-1.03,0-.32,0-.63,0-.95,0-.24,0-.26.03-.27.28,0,.07,0,.14,0,.22v6.25c0,.1,0,.2,0,.3,0,.17.04.21.2.21.39,0,.78,0,1.16,0,.09,0,.17,0,.26,0,.17,0,.2-.04.21-.2,0-.04,0-.09,0-.13,0-.68,0-1.35,0-2.03,0-.69-.06-1.38-.15-2.06-.03-.23-.06-.46-.09-.68-.01-.09.05-.12.12-.14.07-.02.11.02.13.08.04.09.07.19.1.28.28.86.56,1.72.84,2.58.23.7.45,1.39.68,2.09.06.2.08.21.27.21.24,0,.49,0,.73,0,.6,0,.47.04.64-.47.48-1.46.95-2.92,1.43-4.38.04-.11.08-.22.13-.32.03-.06.1-.05.15-.03.04.01.07.04.06.1-.02.19-.04.37-.07.56-.22,1.44-.17,2.89-.17,4.34,0,.15.03.19.17.19.5,0,1.01,0,1.51,0,.1,0,.16-.04.16-.15,0-.1,0-.2,0-.3,0-2.11,0-4.22,0-6.34,0-.09,0-.17,0-.26,0-.16-.05-.2-.21-.2Z" class="cls-1"/>
  <path d="M90.18,64.08c-.11-.35-.23-.71-.34-1.06-.05-.14-.13-.2-.29-.2-.32,0-.63,0-.95,0-.22,0-.43,0-.65,0-.57,0-.48-.08-.65.46-.62,1.91-1.23,3.82-1.84,5.73-.09.29-.19.57-.27.86-.04.13,0,.2.14.2.5,0,1.01,0,1.51,0,.12,0,.18-.05.22-.17.07-.25.16-.49.23-.74.04-.13.11-.19.25-.19.69,0,1.38,0,2.07,0,.14,0,.2.08.24.2.07.23.14.47.21.7.04.12.1.2.24.19.53,0,1.06,0,1.6,0,.15,0,.19-.07.15-.22-.02-.08-.05-.16-.08-.25-.59-1.84-1.19-3.69-1.78-5.53ZM89.25,67.74c-.23,0-.46,0-.69,0h0c-.24,0-.49,0-.73,0-.11,0-.16-.07-.13-.17.06-.24.12-.47.18-.71.21-.76.43-1.51.53-2.3.01-.08.02-.17.12-.21.07-.02.13.05.16.21.16.96.44,1.89.69,2.83.01.04.03.08.04.12.03.15,0,.21-.17.22Z" class="cls-1"/>
  <path d="M75.04,27.32c-.1-.01-.2,0-.3,0-1.42,0-2.85,0-4.27,0-.11,0-.23,0-.34.02-.29.06-.45.24-.48.53-.01.13,0,.26,0,.39,0,3.32,0,6.64,0,9.95,0,.14.01.29.02.43-.01.04-.03.08-.04.12-.01.03-.02.07-.03.1-.02.02-.03.05-.05.07-.03,0-.04.02-.04.05h-.03s0,.03,0,.03c-.03,0-.05.01-.06.04-.01.03-.03.04-.06.04,0,0-.03.01-.03.01-.2.01-.4.04-.6.04-3.36,0-6.73,0-10.09,0-.14,0-.29-.02-.43-.03,0-2.12,0-4.25,0-6.37,0-.16.04-.32-.04-.47-.01-.03-.03-.05-.04-.08,0-.05-.02-.08-.06-.11v-.02s-.02,0-.02,0c0-.03-.02-.05-.05-.04-.06,0-.1-.02-.12-.07,0,0-.02-.02-.02-.02h-.02c-.13-.09-.28-.05-.41-.05-1.19,0-2.38.01-3.56.02-.31,0-.63,0-.94,0-.14,0-.29-.03-.4.1-.1.02-.16.08-.17.18-.02.03-.03.05-.05.08-.08.15-.04.31-.04.47,0,2.25,0,4.51,0,6.76,0,5.14,0,10.27,0,15.41,0,.16,0,.32,0,.47-.15.03-.24-.08-.35-.14-5.19-3.07-10.38-6.14-15.56-9.21-.35-.21-.32-.1-.33-.57,0-.07,0-.14,0-.22,0-4.15,0-8.3,0-12.46,0-.13,0-.26,0-.39-.04-.29-.23-.46-.52-.48-.09,0-.17,0-.26,0-1.47,0-2.93,0-4.4,0-.1,0-.2,0-.3,0-.27.03-.44.21-.47.48-.01.11,0,.23,0,.34,0,5.17,0,10.34,0,15.52,0,.09,0,.17,0,.26,0,.22.09.39.28.5.07.04.15.09.22.13,3.49,2.04,6.99,4.08,10.48,6.13.24.14.49.21.77.21,1.7,0,3.39,0,5.09,0,.86,0,1.72,0,2.59,0,2.66,0,5.32.01,7.98.02.1,0,.2.02.29-.05.19,0,.3-.1.36-.28l.03-.02v-.03c.1-.14.05-.31.05-.46,0-3.05,0-6.09,0-9.14,0-.58-.07-.5.5-.5,5.3,0,10.6,0,15.91,0,.13,0,.26,0,.39,0,.31-.02.52-.19.56-.49.02-.13.02-.26.02-.39,0-5.33,0-10.66,0-15.99,0-.11,0-.23-.01-.34-.04-.31-.22-.49-.53-.53Z" class="cls-1"/>
  <path d="M108.05,45.05c.11,0,.23,0,.34,0h34.06c.13,0,.26,0,.39,0,.33.02.53.22.55.54,0,.1,0,.2,0,.3,0,1.47,0,2.93,0,4.4,0,.11,0,.23,0,.34.03.24.21.42.46.45.13.01.26,0,.39,0,1.88,0,3.77,0,5.65,0,2.98,0,5.95,0,8.93,0,.11,0,.23,0,.34,0,.15,0,.28-.04.4-.14.08-.07.15-.13.23-.2,2.26-1.98,4.52-3.95,6.78-5.93.05-.05.11-.1.16-.14.19-.15.3-.35.28-.6,0-.06,0-.11,0-.17,0-3.94,0-7.87,0-11.81,0-.1,0-.2,0-.3-.03-.3-.22-.5-.52-.53-.11-.01-.23,0-.34,0-1.34,0-2.67,0-4.01,0-5.98,0-11.96,0-17.94,0-.1,0-.2,0-.3,0-.28.03-.47.21-.5.5-.01.11,0,.23,0,.34,0,2.05,0,4.11,0,6.16,0,.1,0,.2,0,.3-.02.34-.2.53-.53.56-.09,0-.17,0-.26,0-3.33,0-6.67,0-10,0-.1,0-.2,0-.3,0-.27-.03-.45-.2-.47-.47-.01-.14,0-.29,0-.43,0-3.38,0-6.75,0-10.13,0-.62-.17-.79-.8-.79-1.45,0-2.9,0-4.35,0-.11,0-.23,0-.34.02-.27.05-.42.24-.44.51,0,.13,0,.26,0,.39,0,3.33,0,6.67,0,10,0,.13,0,.26,0,.39-.03.32-.21.5-.52.52-.11.01-.23,0-.34,0-3.58,0-7.16,0-10.74,0-.12,0-.23,0-.34,0-.29-.03-.48-.2-.51-.49-.01-.11,0-.23,0-.34,0-1.93,0-3.85,0-5.78,0-6.41,0-12.82,0-19.22,0-.67-.05-.73-.71-.92-.79-.22-1.57-.44-2.36-.66-.7-.2-1.41-.4-2.12-.58-.44-.12-.73.11-.75.56,0,.1,0,.2,0,.3v32.11c0,.13,0,.26,0,.39.02.36.22.55.58.56ZM149.35,37.94c0-.07,0-.14,0-.22.03-.3.22-.5.52-.54.13-.01.26,0,.39,0,5.33,0,10.66.01,15.99.02.11,0,.22,0,.33,0,.01.03.02.06.03.08-5.7,4.55-11.4,9.1-17.1,13.65-.03.02-.06.06-.13.03-.06-.07-.03-.18-.03-.27,0-4.25,0-8.5,0-12.75Z" class="cls-1"/>
  <path d="M73.38,48.16c-.11-.01-.23,0-.34,0-1.57,0-3.13,0-4.7,0-1.55,0-3.1,0-4.66,0-.12,0-.23,0-.34,0-.18.02-.28.13-.3.31-.01.14,0,.29,0,.43,0,1.35,0,2.7,0,4.05,0,.44.08.52.53.52,3.19,0,6.38,0,9.57,0,.48,0,.54-.06.54-.56,0-1.41,0-2.82,0-4.22,0-.09,0-.17,0-.26-.02-.16-.12-.26-.28-.27Z" class="cls-1"/>
  <path d="M80,44.6c.04.24.21.42.46.44.11.01.23,0,.34,0,7.16,0,14.31,0,21.47,0,.09,0,.17,0,.26,0,.33-.02.52-.21.54-.55,0-.1,0-.2,0-.3,0-3.39,0-6.78,0-10.17,0-.65-.02-.69-.6-.94-5.83-2.49-11.66-4.98-17.48-7.48-.09-.04-.18-.09-.28-.12-.31-.09-.62.1-.69.42-.02.1-.01.2-.01.3,0,1.61.02,3.22,0,4.83,0,.49.18.74.63.93,5.15,2.17,10.3,4.36,15.45,6.54.41.17.81.35,1.21.52,0,.03,0,.06,0,.09-.15,0-.31,0-.46,0-3.75,0-7.5,0-11.25,0-2.95,0-5.89,0-8.84,0-.49,0-.77.18-.76.74.02,1.49,0,2.99,0,4.48,0,.09,0,.17.01.26Z" class="cls-1"/>
  <path d="M41.49,31.17c.07,0,.14,0,.22,0,1.41,0,2.81,0,4.22,0,.09,0,.17,0,.26,0,.18-.02.28-.12.3-.3,0-.1,0-.2,0-.3,0-.67,0-1.35,0-2.02s0-1.41,0-2.11c0-.52-.05-.57-.56-.57-1.41,0-2.81,0-4.22,0-.09,0-.17,0-.26.01-.16.02-.26.12-.28.28-.01.1,0,.2,0,.3,0,1.38,0,2.75,0,4.13,0,.09,0,.17,0,.26.02.21.12.31.33.33Z" class="cls-1"/>
  <path d="M111.58,64.97c-.27-1.05-.93-1.72-1.98-1.99-.43-.11-.88-.15-1.32-.16-.93,0-1.87,0-2.8,0-.09,0-.17,0-.26,0-.08,0-.13.06-.14.14-.01.11-.01.23-.01.34,0,1.05,0,2.09,0,3.14s0,2.09,0,3.14c0,.11,0,.23,0,.34,0,.08.06.13.14.14.07,0,.14,0,.21,0,.98,0,1.95,0,2.93,0,.37,0,.74-.03,1.11-.11,1.17-.26,1.89-.97,2.14-2.14.14-.65.13-1.31.1-1.97-.01-.3-.05-.6-.12-.89ZM109.7,67.45c-.01.09-.02.17-.04.25-.16.62-.54.97-1.17,1.03-.44.04-.89.02-1.33.02-.11,0-.15-.07-.15-.17,0-.1,0-.2,0-.3,0-.62,0-1.23,0-1.85s0-1.23,0-1.85c0-.1,0-.2.01-.3,0-.06.05-.11.11-.11.52-.01,1.04-.05,1.55.03.44.08.75.35.91.77.06.16.1.33.12.5.08.66.08,1.32,0,1.97Z" class="cls-1"/>
  <path d="M133.56,48.44c-3.16,0-6.32,0-9.47,0-.1,0-.2,0-.3.01-.16.02-.25.13-.27.29,0,.07,0,.14,0,.21,0,1.43,0,2.87,0,4.3,0,.07,0,.14,0,.21.02.15.13.26.29.27.11.01.23,0,.34,0,1.56,0,3.13,0,4.69,0s3.19,0,4.78,0c.47,0,.54-.07.54-.55,0-1.39,0-2.78,0-4.18,0-.55-.17-.59-.61-.59Z" class="cls-1"/>
  <path d="M132.3,63.03c0-.16-.05-.2-.21-.21-.24,0-.49,0-.73,0-.2,0-.4,0-.6,0-.19,0-.21.04-.22.24,0,.04,0,.09,0,.13,0,.59,0,1.18,0,1.77,0,.53.01,1.06.09,1.59.05.34.08.68.13,1.03.01.08,0,.14-.09.16-.08.02-.14-.02-.17-.09-.03-.08-.07-.16-.1-.24-.29-.64-.61-1.27-.97-1.87-.47-.79-.96-1.57-1.43-2.35-.04-.07-.09-.15-.14-.22-.06-.09-.14-.14-.25-.14-.55,0-1.09,0-1.64,0-.18,0-.21.04-.22.24,0,.1,0,.2,0,.3,0,1.03,0,2.07,0,3.1s0,2.07,0,3.1c0,.11,0,.23,0,.34,0,.11.07.15.16.16.17,0,.34,0,.52,0,.3,0,.6,0,.91,0,.14,0,.18-.05.19-.18,0-.06,0-.11,0-.17,0-.63.02-1.26,0-1.9-.02-.82-.06-1.64-.21-2.44-.01-.06-.02-.11-.02-.17,0-.04.03-.08.08-.09.04,0,.09-.01.12,0,.04.03.07.09.09.14.15.31.29.63.44.94.63,1.29,1.44,2.48,2.18,3.71.07.11.15.16.28.16.43,0,.86,0,1.29,0,.57,0,.54,0,.54-.54,0-2.07,0-4.14,0-6.21,0-.1,0-.2,0-.3Z" class="cls-1"/>
  <path d="M145.78,62.86c-.24-.01-.49-.01-.73-.01-.24,0-.26.02-.32.26-.17.61-.34,1.22-.5,1.82-.3,1.12-.65,2.23-.88,3.37-.01.06,0,.14-.07.17-.07-.05-.08-.12-.09-.19-.05-.22-.08-.45-.14-.67-.41-1.49-.82-2.99-1.22-4.48-.02-.06-.03-.11-.05-.17-.02-.06-.07-.11-.12-.11-.32,0-.63,0-.95,0-.07,0-.12.07-.1.16.02.08.05.17.07.25.63,2.15,1.26,4.29,1.89,6.44.03.11.07.21.12.34.35,0,.69,0,1.04,0,.1,0,.16-.06.19-.14.03-.07.04-.14.06-.21.62-2.15,1.25-4.29,1.87-6.44.02-.08.05-.16.07-.25.02-.09-.03-.15-.11-.15Z" class="cls-1"/>
  <path d="M124.7,68.94c0-.12-.07-.18-.19-.19-.1,0-.2,0-.3,0-.83,0-1.67,0-2.5,0-.1,0-.2,0-.3,0-.18,0-.24-.07-.25-.23,0-.47,0-.95,0-1.42,0-.1.07-.15.17-.15.1,0,.2,0,.3,0,.75,0,1.49,0,2.24,0,.1,0,.2,0,.3,0,.14,0,.22-.07.22-.21,0-.29,0-.57,0-.86,0-.1-.08-.15-.17-.15-.1,0-.2,0-.3,0-.76,0-1.52,0-2.28,0-.1,0-.2,0-.3,0-.1,0-.17-.05-.17-.15,0-.42,0-.83,0-1.25,0-.11.08-.15.17-.15.1,0,.2,0,.3,0,.82,0,1.64,0,2.46,0,.11,0,.23,0,.34-.01.09-.01.17-.06.17-.17,0-.34,0-.69,0-1.03,0-.08-.07-.12-.15-.13-.09,0-.17,0-.26,0-1.52,0-3.05,0-4.57,0-.04,0-.09,0-.13,0-.22,0-.25.04-.26.25,0,.06,0,.11,0,.17,0,2.15,0,4.31,0,6.46,0,.11-.02.23.04.34.15.07.31.04.47.04,1.45,0,2.9,0,4.35,0,.72,0,.6.08.61-.62,0-.17,0-.34,0-.52Z" class="cls-1"/>
  <path d="M139.46,69.11c-.78,0-1.55,0-2.33,0-.27,0-.27,0-.28-.26,0-.63,0-1.26,0-1.89,0-.06,0-.11,0-.17,0-.06.05-.1.11-.11.1,0,.2,0,.3,0,.62,0,1.23,0,1.85,0,.1,0,.2,0,.3,0,.1,0,.16-.07.16-.17,0-.19,0-.37,0-.56,0-.1-.06-.16-.16-.17-.11,0-.23,0-.34,0-.67,0-1.35,0-2.02,0-.17,0-.2-.04-.21-.2,0-.29,0-.57,0-.86,0-.24,0-.49,0-.73,0-.16.04-.19.21-.2.1,0,.2,0,.3,0,.57,0,1.15,0,1.72,0,.86-.01.68.15.7-.73,0-.01,0-.03,0-.04,0-.08-.06-.13-.14-.13-.07,0-.14,0-.22,0-1.11,0-2.21,0-3.32,0-.04,0-.09,0-.13,0-.23,0-.25.03-.25.24,0,.1,0,.2,0,.3v6.11c0,.09,0,.17,0,.26,0,.27,0,.28.3.28.07,0,.14,0,.22,0,1.03,0,2.07,0,3.1,0,.6,0,.53.07.53-.52,0-.44,0-.42-.43-.42Z" class="cls-1"/>
  <path d="M101.84,63.24c-.03-.1-.06-.19-.09-.29-.03-.09-.1-.14-.2-.14-.66,0-1.32,0-1.98,0-.14,0-.21.07-.24.2-.02.08-.05.16-.08.25-.45,1.39-.9,2.78-1.35,4.18-.26.81-.52,1.61-.78,2.42-.05.15,0,.22.16.22.49,0,.98,0,1.47,0,.13,0,.22-.05.25-.18.06-.21.12-.41.19-.62.09-.29.09-.29.38-.3.29,0,.57,0,.86,0,.36,0,.72,0,1.08,0,.18,0,.2.02.26.21.08.24.16.49.24.74.03.1.1.14.19.14.26,0,.52,0,.78,0,.26,0,.52,0,.78,0,.19,0,.26-.11.21-.28-.03-.1-.06-.19-.09-.29-.67-2.09-1.35-4.18-2.02-6.26ZM100.91,67.75c-.34,0-.69,0-1.03,0-.09,0-.17,0-.25-.06-.03-.15.04-.28.08-.41.25-.91.52-1.82.66-2.76,0-.04.02-.08.04-.12.01-.03.14-.04.15-.01.02.04.05.07.05.11.14.94.42,1.84.66,2.76.13.5.17.5-.37.49Z" class="cls-1"/>
  <path d="M156.29,62.99c0-.06-.03-.12-.1-.12-.31-.01-.63-.05-.96.04v.35c0,.46,0,.92,0,1.38,0,.73,0,1.46,0,2.2,0,.36.03.72.05,1.07,0,.02-.02.06-.04.06-.02,0-.06-.01-.07-.03-.13-.27-.24-.55-.37-.82-.65-1.31-1.3-2.62-1.94-3.94-.03-.06-.07-.13-.1-.19-.04-.09-.11-.13-.21-.13-.24,0-.49,0-.73,0-.38,0-.38,0-.38.38,0,.07,0,.14,0,.22,0,1.92,0,3.85,0,5.77,0,1.03-.18.8.88.83.01,0,.03,0,.04,0,.08,0,.13-.05.14-.13,0-.06.01-.11.01-.17,0-1.52.02-3.04-.04-4.57,0-.12,0-.24,0-.37.11.06.12.14.16.22.15.34.3.68.46,1.02.54,1.09,1.08,2.19,1.62,3.28.11.23.24.46.36.68.27.09.54.03.81.04.41,0,.41.05.41-.43,0-2.11,0-4.22,0-6.33,0-.1,0-.2,0-.3Z" class="cls-1"/>
  <path d="M118.04,68.76c-.1,0-.2,0-.3,0-.86,0-1.72,0-2.59,0-.1,0-.2,0-.3,0-.15,0-.2-.05-.2-.21,0-.46,0-.92,0-1.38,0-.16.05-.21.2-.21.1,0,.2,0,.3,0,.76,0,1.52,0,2.28,0,.1,0,.2,0,.3,0,.08,0,.14-.05.14-.13,0-.32,0-.63,0-.95,0-.08-.05-.13-.13-.14-.11,0-.23,0-.34,0-.76,0-1.52,0-2.28,0-.1,0-.2,0-.3,0-.1,0-.16-.07-.17-.16,0-.42,0-.83,0-1.25,0-.08.05-.13.14-.14.11,0,.23,0,.34,0,.83,0,1.67,0,2.5,0,.1,0,.2,0,.3,0,.1,0,.17-.06.17-.16,0-.34,0-.69,0-1.03,0-.07-.06-.13-.14-.14-.07,0-.14,0-.21,0-1.55,0-3.1,0-4.65,0-.38,0-.38,0-.38.39,0,1.08,0,2.15,0,3.23s0,2.15,0,3.23c0,.41,0,.41.4.41,1.57,0,3.13,0,4.7,0,.09,0,.17,0,.26,0,.08,0,.14-.05.14-.13,0-.34,0-.69,0-1.03,0-.1-.07-.15-.17-.15Z" class="cls-1"/>
  <path d="M161.84,62.99c-.01-.08-.06-.13-.14-.14-.11,0-.23-.01-.34-.01-1.22,0-2.44,0-3.66,0-.84,0-.69-.13-.7.75,0,.14.04.17.19.17.4,0,.8,0,1.21,0,.49,0,.46-.03.46.47,0,1.76,0,3.53,0,5.29,0,.11,0,.23,0,.34,0,.1.05.17.15.17.27,0,.55,0,.82,0,.08,0,.13-.05.14-.13,0-.09,0-.17,0-.26,0-.92,0-1.84,0-2.75v-1.64c0-.42,0-.83,0-1.25,0-.22.03-.24.26-.24.33,0,.66,0,.99,0,.74,0,.61.1.62-.65,0-.04,0-.09,0-.13Z" class="cls-1"/>
  <path d="M150.31,69.11c-.79,0-1.58,0-2.37,0-.2,0-.22-.02-.23-.22,0-.66,0-1.32,0-1.98,0-.01,0-.03,0-.04,0-.16.03-.19.21-.19.09,0,.17,0,.26,0,.55,0,1.09,0,1.64,0,.7,0,.62.11.62-.66,0-.01,0-.03,0-.04-.01-.15-.06-.2-.22-.2-.27,0-.55,0-.82,0-.5,0-1.01,0-1.51,0-.14,0-.18-.04-.18-.18,0-.53,0-1.06,0-1.59,0-.01,0-.03,0-.04.01-.13.05-.17.19-.18.1,0,.2,0,.3,0,.68,0,1.35,0,2.03,0,.1,0,.2,0,.3-.01.06,0,.11-.04.11-.11,0-.22,0-.43,0-.65,0-.08-.05-.13-.13-.14-.09,0-.17,0-.26,0-1.09,0-2.18,0-3.28,0-.09,0-.17,0-.26,0-.08,0-.13.05-.13.14,0,.11,0,.23,0,.34,0,1.03,0,2.07,0,3.1s0,2.07,0,3.1c0,.11,0,.23,0,.34,0,.1.07.15.17.15.12,0,.23,0,.35,0,1.03,0,2.07,0,3.1,0,.6,0,.53.07.54-.52,0-.43,0-.42-.43-.42Z" class="cls-1"/>
</svg>