<svg xmlns="http://www.w3.org/2000/svg" viewBox="0 0 205.28 87.03"><defs><style>.a{fill:#00341a;}</style></defs><path class="a" d="M333.27,269.93a.47.47,0,0,1-.43.27H274.67c-2.58,0-5.16,0-7.74,0l-9.57-8c0-15.63,0-33.94,0-49.57l11.12-6.2c.8,0,1,.18,1,1,0,13.67,0,33.46,0,47.14,0,1.25,0,1.25,1.29,1.25,2.46,0,4.93-.05,7.39,0,.83,0,1-.26,1-1,0-2.91,0-5.81,0-8.72l12.2-6.56c.72,0,.81.27.8.88,0,3,0,11.67,0,14.66,0,.52.1.73.68.73,8.75,0,17.5,0,26.25,0l.53,0-18.9-16,7.28-8.32a2.82,2.82,0,0,1,4-.21q11.81,11,23.64,21.93c1.11,1,2.21,2.07,3.34,3.08.59.52.4.86-.17,2.06Z" transform="translate(-147.14 -206.38)"/><path class="a" d="M219.12,275.53c1.24,0,10.73-.06,11.94-.41a7.27,7.27,0,0,0,5.56-6.3c0-.53,0-1.07,0-1.6,0-10,0-11.55,0-21.58l11.26-6.12c.73,0,.94.18.94.93,0,5.48,0,7.57,0,13.06h0c0,4.83,0,9.67,0,14.51a28.51,28.51,0,0,1-1.55,9.61c-2.24,6.4-12.67,10.12-19.2,11.59Z" transform="translate(-147.14 -206.38)"/><path class="a" d="M285.73,231c-1.9,2.78-5,3.29-6.6,2.54a3.71,3.71,0,0,1-2-3.37c-.1-1.22,0-2.5-.06-3.75,0-.38.14-.51.5-.6,1.21-.31,2.42-.63,3.62-1,.38-.11.5,0,.48.35,0,.77,0,1.53,0,2.28,0,.53.16,1,.76,1a1.43,1.43,0,0,0,1.36-1.48c0-.77,0-1.53,0-2.28,0-.43.08-.66.58-.77.9-.2,1.8-.45,2.7-.72.41-.12.53,0,.52.39,0,.79,0,1.58,0,2.34s.49,1.09,1.14.86a1.6,1.6,0,0,0,1-1.6c0-.74,0-1.48,0-2.21,0-.35.09-.52.48-.62,1.23-.31,2.46-.65,3.69-1,.23-.06.44-.13.43.2a24.41,24.41,0,0,1-.24,5,6.49,6.49,0,0,1-3.51,4.55c-1.86.92-3.54,1.06-4.84-.22" transform="translate(-147.14 -206.38)"/><rect class="a" x="274.28" y="278.1" width="12.68" height="12.68" transform="translate(-266.08 75.36) rotate(-45)"/><path class="a" d="M351.53,258.51a3,3,0,0,1-4.27,0,3,3,0,0,1-.88-2.14,2.89,2.89,0,0,1,.89-2.13,2.86,2.86,0,0,1,2.12-.88,2.91,2.91,0,0,1,2.14.88,2.88,2.88,0,0,1,.89,2.13,2.93,2.93,0,0,1-.89,2.14m-4-4a2.62,2.62,0,0,0,0,3.69,2.6,2.6,0,0,0,3.67,0,2.61,2.61,0,0,0-1.84-4.45,2.49,2.49,0,0,0-1.83.76m1.78.17a2.48,2.48,0,0,1,.9.12.82.82,0,0,1,.51.84.7.7,0,0,1-.32.65,1.08,1.08,0,0,1-.48.16.82.82,0,0,1,.57.33.88.88,0,0,1,.18.51v.24a2.18,2.18,0,0,0,0,.25.29.29,0,0,0,0,.17l0,0h-.55a0,0,0,0,0,0,0v0l0-.1v-.26c0-.39-.1-.64-.31-.76a1.4,1.4,0,0,0-.65-.11h-.46V258h-.58V254.7Zm.63.52a1.59,1.59,0,0,0-.71-.12h-.5v1.2h.53a1.91,1.91,0,0,0,.56-.07.6.6,0,0,0,.12-1" transform="translate(-147.14 -206.38)"/><polygon class="a" points="0.29 52.3 0.29 45.63 1.68 45.63 1.68 48.17 4.27 48.17 4.27 45.63 5.66 45.63 5.66 52.3 4.27 52.3 4.27 49.32 1.68 49.32 1.68 52.3 0.29 52.3"/><path class="a" d="M156,255.68a2.23,2.23,0,0,0,.51-.11.39.39,0,0,0,.28-.37.44.44,0,0,0-.21-.42,1.45,1.45,0,0,0-.63-.11.8.8,0,0,0-.65.22.88.88,0,0,0-.19.46h-1.24a1.81,1.81,0,0,1,.36-1.07,2.14,2.14,0,0,1,1.77-.65,3.18,3.18,0,0,1,1.44.32,1.24,1.24,0,0,1,.63,1.21v2.27c0,.16,0,.35,0,.57a.72.72,0,0,0,.08.34.49.49,0,0,0,.19.15v.19h-1.4a1.8,1.8,0,0,1-.09-.28c0-.08,0-.19,0-.3a2.72,2.72,0,0,1-.62.5,1.89,1.89,0,0,1-.95.24,1.64,1.64,0,0,1-1.11-.38,1.35,1.35,0,0,1-.44-1.09,1.4,1.4,0,0,1,.7-1.32,3.08,3.08,0,0,1,1.15-.31Zm.79.6a2,2,0,0,1-.25.13l-.35.09-.29.05a2,2,0,0,0-.6.18.59.59,0,0,0-.3.55.57.57,0,0,0,.18.47.73.73,0,0,0,.46.15,1.38,1.38,0,0,0,.78-.24,1.07,1.07,0,0,0,.37-.9Z" transform="translate(-147.14 -206.38)"/><path class="a" d="M163.41,254.34a2.83,2.83,0,0,1,.55,1.81,3.15,3.15,0,0,1-.55,1.91,1.77,1.77,0,0,1-1.52.75,1.81,1.81,0,0,1-1-.24,2,2,0,0,1-.48-.51v.62h-1.27V252h1.29v2.37a1.94,1.94,0,0,1,.54-.53,1.61,1.61,0,0,1,.89-.22,1.84,1.84,0,0,1,1.54.7m-1.08,3a1.87,1.87,0,0,0,.28-1.06,2.4,2.4,0,0,0-.14-.87.94.94,0,0,0-1-.65,1,1,0,0,0-1,.63,2.42,2.42,0,0,0-.14.88,1.78,1.78,0,0,0,.28,1.05,1,1,0,0,0,.87.42.9.9,0,0,0,.78-.4" transform="translate(-147.14 -206.38)"/><path class="a" d="M169.07,254.34a2.83,2.83,0,0,1,.56,1.81,3.22,3.22,0,0,1-.55,1.91,1.77,1.77,0,0,1-1.53.75,1.8,1.8,0,0,1-1-.24,2.19,2.19,0,0,1-.49-.51v.62h-1.27V252h1.29v2.37a2.11,2.11,0,0,1,.55-.53,1.61,1.61,0,0,1,.89-.22,1.84,1.84,0,0,1,1.53.7m-1.08,3a1.8,1.8,0,0,0,.28-1.06,2.2,2.2,0,0,0-.14-.87.94.94,0,0,0-.95-.65,1,1,0,0,0-1,.63,2.44,2.44,0,0,0-.13.88,1.78,1.78,0,0,0,.28,1.05,1,1,0,0,0,.86.42.88.88,0,0,0,.78-.4" transform="translate(-147.14 -206.38)"/><path class="a" d="M172.48,255.68a2.23,2.23,0,0,0,.51-.11.39.39,0,0,0,.28-.37.44.44,0,0,0-.21-.42,1.45,1.45,0,0,0-.63-.11.8.8,0,0,0-.65.22.88.88,0,0,0-.19.46h-1.24a1.81,1.81,0,0,1,.36-1.07,2.14,2.14,0,0,1,1.77-.65,3.18,3.18,0,0,1,1.44.32,1.24,1.24,0,0,1,.63,1.21v2.27c0,.16,0,.35,0,.57a.72.72,0,0,0,.08.34.49.49,0,0,0,.19.15v.19h-1.4a1.8,1.8,0,0,1-.09-.28c0-.08,0-.19,0-.3a2.72,2.72,0,0,1-.62.5,1.89,1.89,0,0,1-.95.24,1.64,1.64,0,0,1-1.11-.38,1.35,1.35,0,0,1-.44-1.09,1.4,1.4,0,0,1,.7-1.32,3.08,3.08,0,0,1,1.15-.31Zm.79.6a2,2,0,0,1-.25.13l-.35.09-.29.05a2,2,0,0,0-.6.18.59.59,0,0,0-.3.55.57.57,0,0,0,.18.47.73.73,0,0,0,.46.15,1.38,1.38,0,0,0,.78-.24,1.07,1.07,0,0,0,.37-.9Z" transform="translate(-147.14 -206.38)"/><path class="a" d="M178.42,253.63h.11V255l-.21,0h-.16a1.05,1.05,0,0,0-1,.51,1.94,1.94,0,0,0-.15.87v2.36h-1.3v-4.93h1.23v.86a2.72,2.72,0,0,1,.52-.68,1.43,1.43,0,0,1,.94-.3h.06" transform="translate(-147.14 -206.38)"/><path class="a" d="M152.14,263.65a2.33,2.33,0,0,1,.77,1.51H152a1.67,1.67,0,0,0-1.81-1.4,1.94,1.94,0,0,0-1.56.69,3.19,3.19,0,0,0-.6,2.12,3.1,3.1,0,0,0,.54,1.9,1.85,1.85,0,0,0,1.6.73,1.69,1.69,0,0,0,1.49-.77,2.8,2.8,0,0,0,.4-1.06H153a2.93,2.93,0,0,1-.77,1.76,2.68,2.68,0,0,1-2.11.86,2.74,2.74,0,0,1-1.92-.7,3.67,3.67,0,0,1-1-2.87,3.73,3.73,0,0,1,.77-2.42,2.81,2.81,0,0,1,2.3-1,2.62,2.62,0,0,1,1.93.67" transform="translate(-147.14 -206.38)"/><path class="a" d="M154.05,265h.78v.84a1.72,1.72,0,0,1,.46-.59,1.21,1.21,0,0,1,.86-.36h.07l.19,0v.86l-.13,0h-.14a1.16,1.16,0,0,0-.94.39,1.4,1.4,0,0,0-.33.91v2.79h-.82Z" transform="translate(-147.14 -206.38)"/><path class="a" d="M160.11,265.1a1.91,1.91,0,0,1,.74.62,2.17,2.17,0,0,1,.32.86,5.49,5.49,0,0,1,.07,1.07h-3.53a2.12,2.12,0,0,0,.35,1.19,1.17,1.17,0,0,0,1,.44,1.29,1.29,0,0,0,1-.42,1.42,1.42,0,0,0,.3-.57h.8a1.66,1.66,0,0,1-.21.6,1.89,1.89,0,0,1-.4.53,1.76,1.76,0,0,1-.91.49,2.59,2.59,0,0,1-.66.08,2,2,0,0,1-1.52-.66,2.58,2.58,0,0,1-.63-1.85,2.81,2.81,0,0,1,.63-1.9,2.1,2.1,0,0,1,1.65-.73,2.2,2.2,0,0,1,1,.25m.29,1.9a2.15,2.15,0,0,0-.22-.85,1.19,1.19,0,0,0-1.11-.58,1.22,1.22,0,0,0-.94.4,1.56,1.56,0,0,0-.4,1Z" transform="translate(-147.14 -206.38)"/><path class="a" d="M164.88,266.88a.44.44,0,0,0,.37-.24.63.63,0,0,0,.06-.31.67.67,0,0,0-.3-.61,1.65,1.65,0,0,0-.85-.19,1.08,1.08,0,0,0-.9.35,1.16,1.16,0,0,0-.2.57h-.76a1.41,1.41,0,0,1,.58-1.25,2.37,2.37,0,0,1,1.3-.35,2.63,2.63,0,0,1,1.39.32,1.12,1.12,0,0,1,.53,1V269a.39.39,0,0,0,.05.2c0,.06.11.08.22.08h.12l.15,0v.61a1.86,1.86,0,0,1-.29.06l-.27,0a.68.68,0,0,1-.62-.3,1.41,1.41,0,0,1-.14-.45,2,2,0,0,1-.71.57,2.23,2.23,0,0,1-1,.24,1.53,1.53,0,0,1-1.1-.41,1.37,1.37,0,0,1-.43-1,1.31,1.31,0,0,1,.42-1,2,2,0,0,1,1.11-.46Zm-1.72,2.2a.92.92,0,0,0,.61.2,1.75,1.75,0,0,0,.83-.2,1.11,1.11,0,0,0,.68-1.08v-.65a1.36,1.36,0,0,1-.38.16l-.46.09-.5.06a1.8,1.8,0,0,0-.66.19.71.71,0,0,0-.38.67.68.68,0,0,0,.26.56" transform="translate(-147.14 -206.38)"/><path class="a" d="M167.6,263.61h.82V265h.78v.67h-.78v3.16a.34.34,0,0,0,.17.34.67.67,0,0,0,.32.05h.29v.64l-.3.06-.33,0a.89.89,0,0,1-.77-.29,1.29,1.29,0,0,1-.2-.76v-3.21h-.66V265h.66Z" transform="translate(-147.14 -206.38)"/><path class="a" d="M170,263.16h.83v.92H170Zm0,1.83h.83v4.82H170Z" transform="translate(-147.14 -206.38)"/><polygon class="a" points="25.33 58.58 26.63 62.53 27.98 58.58 28.87 58.58 27.04 63.43 26.17 63.43 24.39 58.58 25.33 58.58"/><path class="a" d="M179.7,265.1a1.84,1.84,0,0,1,.74.62,2.17,2.17,0,0,1,.32.86,5.49,5.49,0,0,1,.07,1.07h-3.52a2.12,2.12,0,0,0,.34,1.19,1.17,1.17,0,0,0,1,.44,1.31,1.31,0,0,0,1-.42,1.29,1.29,0,0,0,.29-.57h.81a1.88,1.88,0,0,1-.21.6,2.1,2.1,0,0,1-.4.53,1.79,1.79,0,0,1-.92.49,2.59,2.59,0,0,1-.66.08,2,2,0,0,1-1.52-.66,2.58,2.58,0,0,1-.63-1.85,2.81,2.81,0,0,1,.63-1.9,2.1,2.1,0,0,1,1.65-.73,2.2,2.2,0,0,1,1,.25m.3,1.9a2.33,2.33,0,0,0-.23-.85,1.17,1.17,0,0,0-1.11-.58,1.25,1.25,0,0,0-.94.4,1.56,1.56,0,0,0-.4,1Z" transform="translate(-147.14 -206.38)"/><path class="a" d="M184.44,263.14h.82v2.48a2.52,2.52,0,0,1,.52-.52,1.76,1.76,0,0,1,1-.25,1.44,1.44,0,0,1,1.43.73,2.48,2.48,0,0,1,.21,1.12v3.11h-.84v-3.05a1.62,1.62,0,0,0-.14-.79.86.86,0,0,0-.83-.4,1.41,1.41,0,0,0-.92.35,1.72,1.72,0,0,0-.41,1.32v2.57h-.82Z" transform="translate(-147.14 -206.38)"/><path class="a" d="M193.12,265.45a2.43,2.43,0,0,1,.64,1.83,3.15,3.15,0,0,1-.57,1.94,2,2,0,0,1-1.76.77,2,2,0,0,1-1.57-.68,2.69,2.69,0,0,1-.59-1.82,2.9,2.9,0,0,1,.62-1.94,2,2,0,0,1,1.65-.73,2.18,2.18,0,0,1,1.58.63m-.51,3.22a3,3,0,0,0,.3-1.36,2.38,2.38,0,0,0-.22-1.11,1.2,1.2,0,0,0-1.17-.67,1.15,1.15,0,0,0-1.07.57,2.62,2.62,0,0,0-.34,1.38,2.3,2.3,0,0,0,.34,1.29,1.17,1.17,0,0,0,1.06.51,1.1,1.1,0,0,0,1.1-.61" transform="translate(-147.14 -206.38)"/><path class="a" d="M195.58,265v3.22a1.36,1.36,0,0,0,.11.61.8.8,0,0,0,.79.44,1.12,1.12,0,0,0,1.13-.77,3,3,0,0,0,.16-1.11V265h.82v4.85h-.77v-.71a1.76,1.76,0,0,1-.39.46,1.64,1.64,0,0,1-1.11.39,1.44,1.44,0,0,1-1.39-.7,2.15,2.15,0,0,1-.2-1V265Z" transform="translate(-147.14 -206.38)"/><path class="a" d="M200.4,268.29a1.3,1.3,0,0,0,.21.63,1.34,1.34,0,0,0,1.09.39,1.69,1.69,0,0,0,.82-.2.65.65,0,0,0,.35-.61.53.53,0,0,0-.28-.47,3.41,3.41,0,0,0-.71-.23l-.66-.17a3.1,3.1,0,0,1-.93-.34,1,1,0,0,1-.53-.91,1.39,1.39,0,0,1,.5-1.12,2,2,0,0,1,1.35-.42,1.87,1.87,0,0,1,1.6.64,1.33,1.33,0,0,1,.3.88h-.77a.85.85,0,0,0-.2-.5,1.25,1.25,0,0,0-1-.32,1.27,1.27,0,0,0-.72.17.57.57,0,0,0-.24.47.55.55,0,0,0,.32.5,1.57,1.57,0,0,0,.54.2l.55.13a4.19,4.19,0,0,1,1.2.42,1.06,1.06,0,0,1,.47,1,1.5,1.5,0,0,1-.49,1.12,2.16,2.16,0,0,1-1.52.47,2,2,0,0,1-1.55-.49,1.88,1.88,0,0,1-.49-1.22Z" transform="translate(-147.14 -206.38)"/><path class="a" d="M207.55,265.1a1.91,1.91,0,0,1,.74.62,2.17,2.17,0,0,1,.32.86,5.49,5.49,0,0,1,.07,1.07h-3.52a2.12,2.12,0,0,0,.34,1.19,1.17,1.17,0,0,0,1,.44,1.28,1.28,0,0,0,1-.42,1.21,1.21,0,0,0,.3-.57h.81a1.93,1.93,0,0,1-.22.6,1.87,1.87,0,0,1-.39.53,1.79,1.79,0,0,1-.92.49,2.59,2.59,0,0,1-.66.08,2,2,0,0,1-1.52-.66,2.58,2.58,0,0,1-.63-1.85,2.81,2.81,0,0,1,.63-1.9,2.1,2.1,0,0,1,1.65-.73,2.2,2.2,0,0,1,1,.25m.3,1.9a2.33,2.33,0,0,0-.23-.85,1.18,1.18,0,0,0-1.11-.58,1.23,1.23,0,0,0-.94.4,1.56,1.56,0,0,0-.4,1Z" transform="translate(-147.14 -206.38)"/></svg>