<?xml version="1.0" encoding="UTF-8"?>
<svg id="Layer_1" data-name="Layer 1" xmlns="http://www.w3.org/2000/svg" viewBox="0 0 66.67 53.95">
  <defs>
    <style>
      .cls-1 {
        fill: #05331c;
      }
    </style>
  </defs>
  <g>
    <path class="cls-1" d="M7.14,42.09v-7.33h1.54v2.89h3.35v-2.89h1.55v7.33h-1.55v-3.32h-3.35v3.32h-1.54Z"/>
    <path class="cls-1" d="M15.64,38.44v-.02c0-2.49,1.24-3.79,3.61-3.79s3.62,1.3,3.62,3.79v.02c0,2.49-1.24,3.78-3.62,3.78s-3.61-1.29-3.61-3.78ZM21.28,38.59v-.3c0-1.73-.65-2.56-2.02-2.56s-2.02.83-2.02,2.56v.3c0,1.71.66,2.52,2.02,2.52s2.02-.81,2.02-2.52Z"/>
    <path class="cls-1" d="M26.11,42.09l-1.93-7.33h1.57l1,3.97c.15.61.27,1.19.38,1.95h.1c.12-.76.23-1.35.38-1.96l.98-3.96h1.37l1.02,3.97c.16.61.26,1.19.37,1.94h.12c.12-.75.23-1.32.37-1.93l.97-3.98h1.52l-1.9,7.33h-1.87l-.87-3.42c-.14-.54-.26-1.2-.37-2h-.1c-.11.79-.24,1.45-.37,1.99l-.87,3.43h-1.85Z"/>
    <path class="cls-1" d="M36.08,42.09v-7.33h3.08c2.29,0,3.44,1.22,3.44,3.66v.02c0,2.43-1.15,3.65-3.44,3.65h-3.08ZM37.62,41.01h1.46c1.32,0,1.93-.74,1.93-2.39v-.38c0-1.65-.61-2.4-1.93-2.4h-1.46v5.17Z"/>
    <path class="cls-1" d="M43.9,42.09l2.56-7.33h1.87l2.57,7.33h-1.62l-.48-1.41h-2.88l-.48,1.41h-1.52ZM46.17,39.69h2.35l-.61-1.92c-.19-.59-.34-1.1-.51-1.78h-.1c-.17.68-.31,1.18-.5,1.78l-.62,1.91Z"/>
    <path class="cls-1" d="M52.08,39.45l1.56-.24c.01,1.33.43,1.94,1.31,1.94.78,0,1.19-.45,1.19-1.37v-5.02h1.55v5.15c0,1.51-.96,2.31-2.75,2.31s-2.81-.89-2.85-2.78Z"/>
  </g>
  <g>
    <path class="cls-1" d="M26.82,22.07h-.27c-1.42,0-3.48-.62-7.14-2.11-2.79-1.14-3.76-1.47-4.8-1.47-1.79,0-2.86,1.32-2.86,3.56,0,.57.02,1.24.1,1.99h1.12c.1-1.07.5-1.57,1.32-1.57.75,0,1.44.2,3.56,1,1.09.4,1.97.75,2.84.97-1.89.12-3.48.35-5.65.82-1.67.37-3.31.55-4.65.55h-2.49l-.75.75v3.48h2.49c1.84,0,3.51-.5,7.24-2.21,3.71-1.69,5.35-2.02,8.21-2.02h.62l1.19-3.63-.07-.1Z"/>
    <path class="cls-1" d="M21.12,18.89c2.44,0,4.58-.6,5.77-1.62.35-1.52.5-2.69.5-4.01,0-2.36-1.39-5.17-4.25-8.11h-1.04l-1.62,3.51c3.01,2.41,4.83,4.06,5.6,5.35-1,.42-2.44.65-4.3.65-2.29,0-2.89-.35-2.94-1.69l-.02-.67h-1.04c-.27.8-.62,2.09-.62,3.26,0,1.89,1.09,3.33,3.98,3.33Z"/>
    <path class="cls-1" d="M54.25,17.27l-.55-.55c-1.44-1.44-2.51-2.14-3.76-2.14-2.66,0-4.7,3.48-4.7,7.64,0,.9.07,1.82.25,2.66-2.49-1.87-3.21-2.99-3.21-4.45,0-1.02.4-2.21,1.12-3.86l-.97-.52-.7,1.07c-.85,1.32-1.84,1.77-3.86,1.77h-1.24c-.27-3.53-2.14-6.32-4.48-6.32s-4.48,3.13-4.48,6.44c0,2.56,1.84,4.11,5,4.11h2.16c-1.02,1.29-3.63,2.19-9.13,3.58v1.04l5.27,2.24c2.46-2.02,4.25-4.45,5.1-6.87h1.1c1.52-.01,2.6-.57,3.96-2.56-.07.5-.1.97-.1,1.44,0,3.26,1.34,5.32,5.2,8.04l2.61-2.71v-.12c-1.87-1.94-2.36-3.81-2.36-5.13,0-1.92,1.34-3.41,2.74-3.41.75,0,1.49.37,2.26,1.17l.52.55c1.99,2.09,3.04,2.74,4.93,2.74l.75-.75v-3.48c-1.47,0-2.19-.37-3.43-1.62ZM32.33,18.89c-2.41,0-3.41-.35-3.41-.92s.97-1.17,2.02-1.17c1.52,0,2.91.87,3.73,2.09h-2.34Z"/>
    <polygon class="cls-1" points="20.97 27.73 18.73 30.03 21.05 32.33 21.36 32.33 23.6 30.03 21.27 27.73 20.97 27.73"/>
    <path class="cls-1" d="M39.93,10.14l1.43.68c.61-.08,1.18-.33,1.67-.68.69.27,1.56.38,2.49.25.29-.04.58-.1.85-.22.18-.75.24-1.29.17-1.79-.13-.98-1.01-1.72-2.82-2.55l-1.57-.68-.04.04.13.97c-.56.46-.97,1.38-.87,2.11.06.44.26.82.56,1.14-.55.11-1.22.22-2.03.33l.05.4ZM46.2,9.01c-.17.03-.34.07-.53.1-.6.08-1.18.08-1.68.02.33-.51.51-1.09.46-1.67.91.44,1.55.91,1.75,1.55ZM41.76,7.8c-.06-.44.29-.83.8-.9.68-.09,1.41.46,1.5,1.14.05.39-.14.7-.75.97-.88-.22-1.47-.65-1.54-1.21Z"/>
    <polygon class="cls-1" points="49.54 11.56 50.3 10.44 50.16 10.21 38.52 12.72 37.76 13.84 37.89 14.07 49.54 11.56"/>
    <path class="cls-1" d="M14.06,17.51c1.34,0,2.25-.95,2.25-2.29,0-1.49-.97-2.66-2.25-2.66s-2.22,1.14-2.22,2.66c0,1.36.91,2.29,2.22,2.29ZM14.06,14.03c.81,0,1.45.52,1.45,1.21,0,.55-.55.81-1.45.81-.86,0-1.45-.26-1.45-.81,0-.69.67-1.21,1.45-1.21Z"/>
  </g>
  <g>
    <path class="cls-1" d="M25.75,48.65v-4.08h1.38v.29h-1.02v1.5h.92v.29h-.92v2h-.36Z"/>
    <path class="cls-1" d="M28.56,48.65v-4.08h.36v4.08h-.36Z"/>
    <path class="cls-1" d="M30.51,48.65v-4.08h.36v3.79h1v.29h-1.36Z"/>
    <path class="cls-1" d="M33.26,48.65v-4.08h.53l.53,2.45c.08.34.12.64.16,1.04h.06c.04-.4.09-.7.16-1.04l.53-2.46h.53v4.08h-.35v-2.3c0-.38.01-.72.05-1.22h-.06s-.74,3.51-.74,3.51h-.32l-.73-3.52h-.06c.03.5.04.85.04,1.22v2.3h-.33Z"/>
    <path class="cls-1" d="M37.22,47.46v-.16l.35-.1v.19c0,.8.21,1.05.62,1.05.34,0,.54-.2.54-.56s-.17-.64-.52-1.02l-.34-.38c-.36-.4-.56-.7-.56-1.15,0-.5.3-.79.81-.79.55,0,.87.32.87,1.11v.16l-.34.1v-.18c0-.69-.18-.92-.53-.92-.29,0-.48.17-.48.48,0,.34.13.57.49.97l.34.38c.35.38.6.74.6,1.2,0,.56-.33.88-.89.88-.59,0-.96-.34-.96-1.24Z"/>
  </g>
</svg>