<?xml version="1.0" encoding="UTF-8"?>
<svg id="Layer_1" data-name="Layer 1" xmlns="http://www.w3.org/2000/svg" viewBox="0 0 84.04 50.06">
  <defs>
    <style>
      .cls-1 {
        fill: #05331c;
      }
    </style>
  </defs>
  <polygon class="cls-1" points="65.94 5.05 53.33 17.09 53.33 18.88 65.94 6.84 65.94 5.05"/>
  <path class="cls-1" d="M26.91,15.92v-6.17l-2.36,2.36v4.29l-2.01,2.02v-4.31l-2.36,2.36v4.31l-2.23,2.23v-4.31l-2.36,2.38v4.3c0,.69.84,1.04,1.33.55l10-10.01h0Z"/>
  <path class="cls-1" d="M67.25,19.57l2.03-1.74.04-1.88-5.56,4.76-.24.21c-.72.64-.65,1.82-.09,2.62.59.82,1.16,1.79,1.64,2.7h.06l4.79-2.59c-.84-1.42-1.73-2.81-2.66-4.08"/>
  <path class="cls-1" d="M55.41,35.25h-23.25c-.21.42-.4.84-.56,1.29-.18.49-.29,1.01-.41,1.53,0-.53.02-1.07.08-1.61.06-.54.19-1.07.33-1.59.04-.18.1-.37.16-.55,1.59-4.94,6.22-8.52,11.68-8.52s8.7,2.59,10.78,6.4c.51.95.91,1.97,1.17,3.05M73.53,35.25c-.19-1.89-.59-3.74-1.15-5.5l-5.31,1.7c.39,1.22.67,2.5.84,3.8v.03h-6.18c-.02.41-.05.81-.1,1.21-.06.53-.16,1.07-.26,1.58,0-.53-.02-1.07-.06-1.59-.04-.4-.09-.81-.15-1.21v-.03c-.32-2.05-.99-3.98-1.96-5.74-3.04-5.57-8.94-9.35-15.73-9.35s-14.74,5.22-17.06,12.43c-.27.86-.49,1.75-.63,2.65h-1.35c.17-1.32.47-2.62.86-3.86l-5.31-1.71c-.57,1.78-.97,3.64-1.17,5.56h-8.37c-.08.94-.12,1.87-.12,2.83s.04,1.89.12,2.83h15.34c.2,1.29.55,2.54,1.02,3.74l5.25-2.07c-.21-.54-.39-1.09-.52-1.66h26.95v.02h12.1v-.02h2.96c.09-.93.15-1.87.15-2.83s-.04-1.9-.15-2.83"/>
</svg>