<?xml version="1.0" encoding="UTF-8"?>
<svg id="Layer_1" data-name="Layer 1" xmlns="http://www.w3.org/2000/svg" viewBox="0 0 125.59 58.31">
  <defs>
    <style>
      .cls-1 {
        fill: #0a331d;
      }
    </style>
  </defs>
  <path class="cls-1" d="M21.82,17v-2.6h-5.16v15.66h5.17v-2.74c0-.89.13-1.77.44-2.61,1.01-2.81,3.59-4.87,6.67-5.13v-5.17c-2.67.13-5.12,1.08-7.13,2.59"/>
  <path class="cls-1" d="M38.03,17.51l-3.67,3.67c1.84,1.42,3.03,3.65,3.03,6.16,0,.04,0,.09,0,.13h5.16s0-.09,0-.13c0-3.92-1.76-7.45-4.53-9.82"/>
  <path class="cls-1" d="M29.61,35.12h0v5.16c7.09,0,12.87-5.74,12.94-12.81h-5.16c-.07,4.23-3.53,7.65-7.78,7.66"/>
  <path class="cls-1" d="M29.61,35.12c-2.5,0-4.73-1.19-6.15-3.02l-3.67,3.65c2.37,2.77,5.89,4.53,9.82,4.53h0v-5.16h0Z"/>
  <path class="cls-1" d="M53.61,18.41c.19-.51.5-.89.94-1.14.44-.26.93-.38,1.47-.38v2.29c-.62-.07-1.18.05-1.68.38-.49.33-.74.87-.74,1.64v3.79h-2.05v-7.94h2.05v1.37Z"/>
  <path class="cls-1" d="M58.64,21.86c.28.99,1.02,1.49,2.24,1.49.78,0,1.38-.26,1.78-.79l1.65.95c-.78,1.13-1.94,1.7-3.46,1.7-1.31,0-2.37-.4-3.16-1.19-.79-.79-1.19-1.8-1.19-3s.39-2.19,1.18-2.99c.78-.8,1.79-1.2,3.02-1.2s2.13.4,2.88,1.21c.76.8,1.14,1.8,1.14,2.98,0,.26-.03.55-.08.84h-5.99ZM58.61,20.27h4.05c-.11-.54-.35-.94-.72-1.21-.37-.27-.78-.4-1.25-.4-.55,0-1.01.14-1.37.42-.36.28-.6.67-.72,1.18"/>
  <path class="cls-1" d="M72.09,13.87h2.05v11.11h-2.05v-.94c-.6.77-1.46,1.16-2.57,1.16s-1.98-.4-2.74-1.21c-.75-.81-1.13-1.8-1.13-2.98s.38-2.17,1.13-2.98c.76-.81,1.67-1.21,2.74-1.21s1.97.39,2.57,1.16v-4.11ZM68.32,22.63c.42.42.94.63,1.58.63s1.16-.21,1.57-.63.62-.95.62-1.61-.21-1.19-.62-1.61c-.41-.42-.94-.63-1.57-.63s-1.16.21-1.58.63c-.42.42-.63.95-.63,1.61s.21,1.19.63,1.61"/>
  <path class="cls-1" d="M56.18,30.35c1.07,0,1.98.4,2.74,1.21.76.81,1.14,1.8,1.14,2.98s-.38,2.17-1.14,2.98c-.76.81-1.67,1.21-2.74,1.21s-1.97-.39-2.57-1.16v.94h-2.05v-11.11h2.05v4.11c.6-.77,1.46-1.16,2.57-1.16M54.22,36.16c.41.42.94.63,1.57.63s1.16-.21,1.58-.63c.42-.42.63-.95.63-1.61s-.21-1.19-.63-1.61c-.42-.42-.94-.63-1.58-.63s-1.16.21-1.57.63c-.41.42-.62.96-.62,1.61s.21,1.19.62,1.61"/>
  <path class="cls-1" d="M67.53,30.58h2.05v7.94h-2.05v-.94c-.61.77-1.47,1.16-2.59,1.16s-1.97-.4-2.73-1.21c-.75-.81-1.14-1.8-1.14-2.98s.38-2.17,1.14-2.98c.76-.81,1.66-1.21,2.73-1.21s1.97.39,2.59,1.16v-.94ZM63.75,36.16c.41.42.94.63,1.57.63s1.16-.21,1.58-.63c.42-.42.63-.95.63-1.61s-.21-1.19-.63-1.61c-.42-.42-.95-.63-1.58-.63s-1.16.21-1.57.63c-.41.42-.62.96-.62,1.61s.21,1.19.62,1.61"/>
  <path class="cls-1" d="M75.86,30.35c.87,0,1.59.29,2.15.87.57.58.85,1.39.85,2.41v4.87h-2.05v-4.62c0-.53-.14-.93-.43-1.21-.29-.28-.67-.42-1.14-.42-.53,0-.95.16-1.27.49-.32.33-.48.82-.48,1.48v4.29h-2.05v-7.94h2.05v.89c.5-.74,1.29-1.11,2.37-1.11"/>
  <path class="cls-1" d="M86.64,30.58h2.05v7.94h-2.05v-.94c-.61.77-1.47,1.16-2.59,1.16s-1.97-.4-2.73-1.21c-.75-.81-1.14-1.8-1.14-2.98s.38-2.17,1.14-2.98c.76-.81,1.66-1.21,2.73-1.21s1.97.39,2.59,1.16v-.94ZM82.86,36.16c.41.42.94.63,1.57.63s1.16-.21,1.58-.63c.42-.42.63-.95.63-1.61s-.21-1.19-.63-1.61c-.42-.42-.95-.63-1.58-.63s-1.16.21-1.57.63c-.41.42-.62.96-.62,1.61s.21,1.19.62,1.61"/>
  <path class="cls-1" d="M94.97,30.35c.87,0,1.59.29,2.15.87.57.58.85,1.39.85,2.41v4.87h-2.05v-4.62c0-.53-.14-.93-.43-1.21-.28-.28-.67-.42-1.14-.42-.53,0-.95.16-1.27.49-.32.33-.48.82-.48,1.48v4.29h-2.05v-7.94h2.05v.89c.5-.74,1.29-1.11,2.37-1.11"/>
  <path class="cls-1" d="M105.75,30.58h2.05v7.94h-2.05v-.94c-.61.77-1.48,1.16-2.59,1.16s-1.97-.4-2.73-1.21c-.75-.81-1.13-1.8-1.13-2.98s.38-2.17,1.13-2.98c.76-.81,1.67-1.21,2.73-1.21,1.11,0,1.97.39,2.59,1.16v-.94ZM101.97,36.16c.41.42.94.63,1.57.63s1.16-.21,1.58-.63c.42-.42.63-.95.63-1.61s-.21-1.19-.63-1.61c-.42-.42-.94-.63-1.58-.63s-1.16.21-1.57.63c-.41.42-.62.96-.62,1.61s.21,1.19.62,1.61"/>
  <path class="cls-1" d="M111.49,32.83c0,.21.14.38.42.52.28.13.62.25,1.02.35.4.1.8.23,1.21.38.4.15.74.41,1.02.77.28.36.42.81.42,1.35,0,.82-.31,1.44-.91,1.88-.61.44-1.37.66-2.28.66-1.63,0-2.74-.63-3.34-1.89l1.78-1c.23.69.75,1.03,1.56,1.03.73,0,1.1-.23,1.1-.68,0-.21-.14-.38-.42-.52-.28-.13-.62-.25-1.03-.36-.4-.11-.8-.24-1.21-.4-.4-.16-.74-.41-1.02-.75-.28-.34-.42-.78-.42-1.29,0-.78.29-1.4.86-1.85.58-.45,1.3-.68,2.15-.68.65,0,1.23.15,1.76.44.53.29.95.71,1.25,1.25l-1.75.95c-.25-.54-.68-.81-1.27-.81-.27,0-.48.06-.66.17-.18.12-.26.28-.26.48"/>
</svg>